<svg width="125" height="125" viewBox="0 0 125 125" fill="none" xmlns="http://www.w3.org/2000/svg">
<g filter="url(#filter0_b_1035_13132)">
<rect width="35" height="35" rx="5" fill="#59D3D4" fill-opacity="0.1"/>
</g>
<path d="M22.125 17.25C22.125 18.0658 21.8831 18.8634 21.4298 19.5417C20.9766 20.2201 20.3323 20.7488 19.5786 21.061C18.8248 21.3732 17.9954 21.4549 17.1953 21.2957C16.3951 21.1366 15.6601 20.7437 15.0832 20.1668C14.5063 19.5899 14.1134 18.8549 13.9543 18.0547C13.7951 17.2546 13.8768 16.4252 14.189 15.6714C14.5012 14.9177 15.0299 14.2734 15.7083 13.8202C16.3866 13.3669 17.1842 13.125 18 13.125C19.0936 13.1262 20.1421 13.5612 20.9154 14.3346C21.6888 15.1079 22.1238 16.1564 22.125 17.25ZM27.75 18C27.75 19.9284 27.1782 21.8134 26.1068 23.4168C25.0355 25.0202 23.5127 26.2699 21.7312 27.0078C19.9496 27.7458 17.9892 27.9389 16.0979 27.5627C14.2066 27.1865 12.4693 26.2579 11.1057 24.8943C9.74215 23.5307 8.81355 21.7934 8.43734 19.9021C8.06114 18.0108 8.25422 16.0504 8.99217 14.2688C9.73013 12.4873 10.9798 10.9645 12.5832 9.89317C14.1866 8.82183 16.0716 8.25 18 8.25C20.585 8.25273 23.0634 9.28084 24.8913 11.1087C26.7192 12.9366 27.7473 15.415 27.75 18ZM26.25 18C26.2488 16.8896 26.0237 15.7908 25.5881 14.7693C25.1525 13.7479 24.5154 12.8248 23.7148 12.0553C22.9143 11.2857 21.9668 10.6855 20.9289 10.2905C19.8911 9.89556 18.7843 9.71395 17.6747 9.75656C13.2591 9.92719 9.73781 13.605 9.75 18.0234C9.75423 20.0349 10.4961 21.9749 11.835 23.4759C12.3803 22.6851 13.0729 22.0068 13.875 21.4781C13.9434 21.433 14.0247 21.4114 14.1065 21.4169C14.1882 21.4223 14.266 21.4543 14.3278 21.5081C15.347 22.3897 16.6496 22.8749 17.9972 22.8749C19.3448 22.8749 20.6473 22.3897 21.6666 21.5081C21.7284 21.4543 21.8061 21.4223 21.8879 21.4169C21.9697 21.4114 22.051 21.433 22.1194 21.4781C22.9225 22.0065 23.6161 22.6848 24.1622 23.4759C25.5077 21.9694 26.251 20.0199 26.25 18Z" fill="#59D3D4"/>
<g filter="url(#filter1_b_1035_13132)">
<rect x="45" width="35" height="35" rx="5" fill="#59D3D4" fill-opacity="0.1"/>
</g>
<path d="M71.0306 23.031L68.0306 26.031C67.8899 26.1718 67.699 26.2508 67.5 26.2508C67.301 26.2508 67.1101 26.1718 66.9694 26.031C66.8286 25.8903 66.7496 25.6994 66.7496 25.5004C66.7496 25.3014 66.8286 25.1105 66.9694 24.9698L68.6897 23.2504H55.5C55.3011 23.2504 55.1103 23.1714 54.9697 23.0307C54.829 22.8901 54.75 22.6993 54.75 22.5004C54.75 22.3015 54.829 22.1107 54.9697 21.9701C55.1103 21.8294 55.3011 21.7504 55.5 21.7504H68.6897L66.9694 20.031C66.8286 19.8903 66.7496 19.6994 66.7496 19.5004C66.7496 19.3014 66.8286 19.1105 66.9694 18.9698C67.1101 18.8291 67.301 18.75 67.5 18.75C67.699 18.75 67.8899 18.8291 68.0306 18.9698L71.0306 21.9698C71.1004 22.0394 71.1557 22.1222 71.1934 22.2132C71.2312 22.3043 71.2506 22.4019 71.2506 22.5004C71.2506 22.599 71.2312 22.6966 71.1934 22.7876C71.1557 22.8787 71.1004 22.9614 71.0306 23.031ZM57.9694 17.031C58.1101 17.1718 58.301 17.2508 58.5 17.2508C58.699 17.2508 58.8899 17.1718 59.0306 17.031C59.1714 16.8903 59.2504 16.6994 59.2504 16.5004C59.2504 16.3014 59.1714 16.1105 59.0306 15.9698L57.3103 14.2504H70.5C70.6989 14.2504 70.8897 14.1714 71.0303 14.0307C71.171 13.8901 71.25 13.6993 71.25 13.5004C71.25 13.3015 71.171 13.1107 71.0303 12.9701C70.8897 12.8294 70.6989 12.7504 70.5 12.7504H57.3103L59.0306 11.031C59.1714 10.8903 59.2504 10.6994 59.2504 10.5004C59.2504 10.3014 59.1714 10.1105 59.0306 9.96979C58.8899 9.82906 58.699 9.75 58.5 9.75C58.301 9.75 58.1101 9.82906 57.9694 9.96979L54.9694 12.9698C54.8996 13.0394 54.8443 13.1222 54.8066 13.2132C54.7688 13.3043 54.7494 13.4019 54.7494 13.5004C54.7494 13.599 54.7688 13.6966 54.8066 13.7876C54.8443 13.8787 54.8996 13.9614 54.9694 14.031L57.9694 17.031Z" fill="#59D3D4"/>
<g filter="url(#filter2_b_1035_13132)">
<rect x="90" width="35" height="35" rx="5" fill="#59D3D4" fill-opacity="0.1"/>
</g>
<path d="M112.125 17.25C112.125 18.0658 111.883 18.8634 111.43 19.5417C110.977 20.2201 110.332 20.7488 109.579 21.061C108.825 21.3732 107.995 21.4549 107.195 21.2957C106.395 21.1366 105.66 20.7437 105.083 20.1668C104.506 19.5899 104.113 18.8549 103.954 18.0547C103.795 17.2546 103.877 16.4252 104.189 15.6714C104.501 14.9177 105.03 14.2734 105.708 13.8202C106.387 13.3669 107.184 13.125 108 13.125C109.094 13.1262 110.142 13.5612 110.915 14.3346C111.689 15.1079 112.124 16.1564 112.125 17.25ZM117.75 18C117.75 19.9284 117.178 21.8134 116.107 23.4168C115.035 25.0202 113.513 26.2699 111.731 27.0078C109.95 27.7458 107.989 27.9389 106.098 27.5627C104.207 27.1865 102.469 26.2579 101.106 24.8943C99.7421 23.5307 98.8135 21.7934 98.4373 19.9021C98.0611 18.0108 98.2542 16.0504 98.9922 14.2688C99.7301 12.4873 100.98 10.9645 102.583 9.89317C104.187 8.82183 106.072 8.25 108 8.25C110.585 8.25273 113.063 9.28084 114.891 11.1087C116.719 12.9366 117.747 15.415 117.75 18ZM116.25 18C116.249 16.8896 116.024 15.7908 115.588 14.7693C115.152 13.7479 114.515 12.8248 113.715 12.0553C112.914 11.2857 111.967 10.6855 110.929 10.2905C109.891 9.89556 108.784 9.71395 107.675 9.75656C103.259 9.92719 99.7378 13.605 99.75 18.0234C99.7542 20.0349 100.496 21.9749 101.835 23.4759C102.38 22.6851 103.073 22.0068 103.875 21.4781C103.943 21.433 104.025 21.4114 104.106 21.4169C104.188 21.4223 104.266 21.4543 104.328 21.5081C105.347 22.3897 106.65 22.8749 107.997 22.8749C109.345 22.8749 110.647 22.3897 111.667 21.5081C111.728 21.4543 111.806 21.4223 111.888 21.4169C111.97 21.4114 112.051 21.433 112.119 21.4781C112.922 22.0065 113.616 22.6848 114.162 23.4759C115.508 21.9694 116.251 20.0199 116.25 18Z" fill="#59D3D4"/>
<g filter="url(#filter3_b_1035_13132)">
<rect y="45" width="35" height="35" rx="5" fill="#59D3D4" fill-opacity="0.1"/>
</g>
<path d="M17.0306 66.969C17.1004 67.0386 17.1557 67.1214 17.1934 67.2124C17.2312 67.3035 17.2506 67.4011 17.2506 67.4996C17.2506 67.5982 17.2312 67.6958 17.1934 67.7868C17.1557 67.8779 17.1004 67.9606 17.0306 68.0302L14.0306 71.0302C13.961 71.1 13.8783 71.1553 13.7872 71.193C13.6962 71.2308 13.5986 71.2502 13.5 71.2502C13.4014 71.2502 13.3038 71.2308 13.2128 71.193C13.1217 71.1553 13.039 71.1 12.9694 71.0302L9.96938 68.0302C9.89969 67.9606 9.84442 67.8778 9.80671 67.7868C9.76899 67.6957 9.74958 67.5982 9.74958 67.4996C9.74958 67.4011 9.76899 67.3035 9.80671 67.2124C9.84442 67.1214 9.89969 67.0387 9.96938 66.969C10.1101 66.8283 10.301 66.7492 10.5 66.7492C10.5985 66.7492 10.6961 66.7686 10.7872 66.8063C10.8782 66.844 10.9609 66.8993 11.0306 66.969L12.75 68.6893V55.4996C12.75 55.3007 12.829 55.1099 12.9697 54.9693C13.1103 54.8286 13.3011 54.7496 13.5 54.7496C13.6989 54.7496 13.8897 54.8286 14.0303 54.9693C14.171 55.1099 14.25 55.3007 14.25 55.4996V68.6893L15.9694 66.969C16.039 66.8993 16.1217 66.8439 16.2128 66.8062C16.3038 66.7684 16.4014 66.749 16.5 66.749C16.5986 66.749 16.6962 66.7684 16.7872 66.8062C16.8783 66.8439 16.961 66.8993 17.0306 66.969ZM26.0306 57.969L23.0306 54.969C22.961 54.8993 22.8783 54.8439 22.7872 54.8062C22.6962 54.7685 22.5986 54.749 22.5 54.749C22.4014 54.749 22.3038 54.7685 22.2128 54.8062C22.1217 54.8439 22.039 54.8993 21.9694 54.969L18.9694 57.969C18.8286 58.1097 18.7496 58.3006 18.7496 58.4996C18.7496 58.6986 18.8286 58.8895 18.9694 59.0302C19.1101 59.171 19.301 59.25 19.5 59.25C19.699 59.25 19.8899 59.171 20.0306 59.0302L21.75 57.3099V70.4996C21.75 70.6985 21.829 70.8893 21.9697 71.0299C22.1103 71.1706 22.3011 71.2496 22.5 71.2496C22.6989 71.2496 22.8897 71.1706 23.0303 71.0299C23.171 70.8893 23.25 70.6985 23.25 70.4996V57.3099L24.9694 59.0302C25.1101 59.171 25.301 59.25 25.5 59.25C25.699 59.25 25.8899 59.171 26.0306 59.0302C26.1714 58.8895 26.2504 58.6986 26.2504 58.4996C26.2504 58.3006 26.1714 58.1097 26.0306 57.969Z" fill="#59D3D4"/>
<g filter="url(#filter4_b_1035_13132)">
<rect x="45" y="45" width="35" height="35" rx="5" fill="#59D3D4" fill-opacity="0.1"/>
</g>
<path d="M67.125 62.25C67.125 63.0658 66.8831 63.8634 66.4298 64.5417C65.9766 65.2201 65.3323 65.7488 64.5786 66.061C63.8248 66.3732 62.9954 66.4549 62.1953 66.2957C61.3951 66.1366 60.6601 65.7437 60.0832 65.1668C59.5063 64.5899 59.1134 63.8549 58.9543 63.0547C58.7951 62.2546 58.8768 61.4252 59.189 60.6714C59.5012 59.9177 60.0299 59.2734 60.7083 58.8202C61.3866 58.3669 62.1842 58.125 63 58.125C64.0936 58.1262 65.1421 58.5612 65.9154 59.3346C66.6888 60.1079 67.1238 61.1564 67.125 62.25ZM72.75 63C72.75 64.9284 72.1782 66.8134 71.1068 68.4168C70.0355 70.0202 68.5127 71.2699 66.7312 72.0078C64.9496 72.7458 62.9892 72.9389 61.0979 72.5627C59.2066 72.1865 57.4693 71.2579 56.1057 69.8943C54.7421 68.5307 53.8135 66.7934 53.4373 64.9021C53.0611 63.0108 53.2542 61.0504 53.9922 59.2688C54.7301 57.4873 55.9798 55.9645 57.5832 54.8932C59.1866 53.8218 61.0716 53.25 63 53.25C65.585 53.2527 68.0634 54.2808 69.8913 56.1087C71.7192 57.9366 72.7473 60.415 72.75 63ZM71.25 63C71.2488 61.8896 71.0237 60.7908 70.5881 59.7693C70.1525 58.7479 69.5154 57.8248 68.7148 57.0553C67.9143 56.2857 66.9668 55.6855 65.9289 55.2905C64.8911 54.8956 63.7843 54.714 62.6747 54.7566C58.2591 54.9272 54.7378 58.605 54.75 63.0234C54.7542 65.0349 55.4961 66.9749 56.835 68.4759C57.3803 67.6851 58.0729 67.0068 58.875 66.4781C58.9434 66.433 59.0247 66.4114 59.1065 66.4169C59.1882 66.4223 59.266 66.4543 59.3278 66.5081C60.347 67.3897 61.6496 67.8749 62.9972 67.8749C64.3448 67.8749 65.6473 67.3897 66.6666 66.5081C66.7284 66.4543 66.8061 66.4223 66.8879 66.4169C66.9697 66.4114 67.051 66.433 67.1194 66.4781C67.9225 67.0065 68.6161 67.6848 69.1622 68.4759C70.5077 66.9694 71.251 65.0199 71.25 63Z" fill="#59D3D4"/>
<g filter="url(#filter5_b_1035_13132)">
<rect x="90" y="45" width="35" height="35" rx="5" fill="#59D3D4" fill-opacity="0.1"/>
</g>
<path d="M107.031 66.969C107.1 67.0386 107.156 67.1214 107.193 67.2124C107.231 67.3035 107.251 67.4011 107.251 67.4996C107.251 67.5982 107.231 67.6958 107.193 67.7868C107.156 67.8779 107.1 67.9606 107.031 68.0302L104.031 71.0302C103.961 71.1 103.878 71.1553 103.787 71.193C103.696 71.2308 103.599 71.2502 103.5 71.2502C103.401 71.2502 103.304 71.2308 103.213 71.193C103.122 71.1553 103.039 71.1 102.969 71.0302L99.9694 68.0302C99.8997 67.9606 99.8444 67.8778 99.8067 67.7868C99.769 67.6957 99.7496 67.5982 99.7496 67.4996C99.7496 67.4011 99.769 67.3035 99.8067 67.2124C99.8444 67.1214 99.8997 67.0387 99.9694 66.969C100.11 66.8283 100.301 66.7492 100.5 66.7492C100.599 66.7492 100.696 66.7686 100.787 66.8063C100.878 66.844 100.961 66.8993 101.031 66.969L102.75 68.6893V55.4996C102.75 55.3007 102.829 55.1099 102.97 54.9693C103.11 54.8286 103.301 54.7496 103.5 54.7496C103.699 54.7496 103.89 54.8286 104.03 54.9693C104.171 55.1099 104.25 55.3007 104.25 55.4996V68.6893L105.969 66.969C106.039 66.8993 106.122 66.8439 106.213 66.8062C106.304 66.7684 106.401 66.749 106.5 66.749C106.599 66.749 106.696 66.7684 106.787 66.8062C106.878 66.8439 106.961 66.8993 107.031 66.969ZM116.031 57.969L113.031 54.969C112.961 54.8993 112.878 54.8439 112.787 54.8062C112.696 54.7685 112.599 54.749 112.5 54.749C112.401 54.749 112.304 54.7685 112.213 54.8062C112.122 54.8439 112.039 54.8993 111.969 54.969L108.969 57.969C108.829 58.1097 108.75 58.3006 108.75 58.4996C108.75 58.6986 108.829 58.8895 108.969 59.0302C109.11 59.171 109.301 59.25 109.5 59.25C109.699 59.25 109.89 59.171 110.031 59.0302L111.75 57.3099V70.4996C111.75 70.6985 111.829 70.8893 111.97 71.0299C112.11 71.1706 112.301 71.2496 112.5 71.2496C112.699 71.2496 112.89 71.1706 113.03 71.0299C113.171 70.8893 113.25 70.6985 113.25 70.4996V57.3099L114.969 59.0302C115.11 59.171 115.301 59.25 115.5 59.25C115.699 59.25 115.89 59.171 116.031 59.0302C116.171 58.8895 116.25 58.6986 116.25 58.4996C116.25 58.3006 116.171 58.1097 116.031 57.969Z" fill="#59D3D4"/>
<g filter="url(#filter6_b_1035_13132)">
<rect y="90" width="35" height="35" rx="5" fill="#59D3D4" fill-opacity="0.1"/>
</g>
<path d="M22.125 107.25C22.125 108.066 21.8831 108.863 21.4298 109.542C20.9766 110.22 20.3323 110.749 19.5786 111.061C18.8248 111.373 17.9954 111.455 17.1953 111.296C16.3951 111.137 15.6601 110.744 15.0832 110.167C14.5063 109.59 14.1134 108.855 13.9543 108.055C13.7951 107.255 13.8768 106.425 14.189 105.671C14.5012 104.918 15.0299 104.273 15.7083 103.82C16.3866 103.367 17.1842 103.125 18 103.125C19.0936 103.126 20.1421 103.561 20.9154 104.335C21.6888 105.108 22.1238 106.156 22.125 107.25ZM27.75 108C27.75 109.928 27.1782 111.813 26.1068 113.417C25.0355 115.02 23.5127 116.27 21.7312 117.008C19.9496 117.746 17.9892 117.939 16.0979 117.563C14.2066 117.186 12.4693 116.258 11.1057 114.894C9.74215 113.531 8.81355 111.793 8.43734 109.902C8.06114 108.011 8.25422 106.05 8.99217 104.269C9.73013 102.487 10.9798 100.965 12.5832 99.8932C14.1866 98.8218 16.0716 98.25 18 98.25C20.585 98.2527 23.0634 99.2808 24.8913 101.109C26.7192 102.937 27.7473 105.415 27.75 108ZM26.25 108C26.2488 106.89 26.0237 105.791 25.5881 104.769C25.1525 103.748 24.5154 102.825 23.7148 102.055C22.9143 101.286 21.9668 100.685 20.9289 100.291C19.8911 99.8956 18.7843 99.714 17.6747 99.7566C13.2591 99.9272 9.73781 103.605 9.75 108.023C9.75423 110.035 10.4961 111.975 11.835 113.476C12.3803 112.685 13.0729 112.007 13.875 111.478C13.9434 111.433 14.0247 111.411 14.1065 111.417C14.1882 111.422 14.266 111.454 14.3278 111.508C15.347 112.39 16.6496 112.875 17.9972 112.875C19.3448 112.875 20.6473 112.39 21.6666 111.508C21.7284 111.454 21.8061 111.422 21.8879 111.417C21.9697 111.411 22.051 111.433 22.1194 111.478C22.9225 112.006 23.6161 112.685 24.1622 113.476C25.5077 111.969 26.251 110.02 26.25 108Z" fill="#59D3D4"/>
<g filter="url(#filter7_b_1035_13132)">
<rect x="45" y="90" width="35" height="35" rx="5" fill="#59D3D4" fill-opacity="0.1"/>
</g>
<path d="M71.0306 113.031L68.0306 116.031C67.8899 116.172 67.699 116.251 67.5 116.251C67.301 116.251 67.1101 116.172 66.9694 116.031C66.8286 115.89 66.7496 115.699 66.7496 115.5C66.7496 115.301 66.8286 115.111 66.9694 114.97L68.6897 113.25H55.5C55.3011 113.25 55.1103 113.171 54.9697 113.031C54.829 112.89 54.75 112.699 54.75 112.5C54.75 112.302 54.829 112.111 54.9697 111.97C55.1103 111.829 55.3011 111.75 55.5 111.75H68.6897L66.9694 110.031C66.8286 109.89 66.7496 109.699 66.7496 109.5C66.7496 109.301 66.8286 109.111 66.9694 108.97C67.1101 108.829 67.301 108.75 67.5 108.75C67.699 108.75 67.8899 108.829 68.0306 108.97L71.0306 111.97C71.1004 112.039 71.1557 112.122 71.1934 112.213C71.2312 112.304 71.2506 112.402 71.2506 112.5C71.2506 112.599 71.2312 112.697 71.1934 112.788C71.1557 112.879 71.1004 112.961 71.0306 113.031ZM57.9694 107.031C58.1101 107.172 58.301 107.251 58.5 107.251C58.699 107.251 58.8899 107.172 59.0306 107.031C59.1714 106.89 59.2504 106.699 59.2504 106.5C59.2504 106.301 59.1714 106.111 59.0306 105.97L57.3103 104.25H70.5C70.6989 104.25 70.8897 104.171 71.0303 104.031C71.171 103.89 71.25 103.699 71.25 103.5C71.25 103.302 71.171 103.111 71.0303 102.97C70.8897 102.829 70.6989 102.75 70.5 102.75H57.3103L59.0306 101.031C59.1714 100.89 59.2504 100.699 59.2504 100.5C59.2504 100.301 59.1714 100.111 59.0306 99.9698C58.8899 99.8291 58.699 99.75 58.5 99.75C58.301 99.75 58.1101 99.8291 57.9694 99.9698L54.9694 102.97C54.8996 103.039 54.8443 103.122 54.8066 103.213C54.7688 103.304 54.7494 103.402 54.7494 103.5C54.7494 103.599 54.7688 103.697 54.8066 103.788C54.8443 103.879 54.8996 103.961 54.9694 104.031L57.9694 107.031Z" fill="#59D3D4"/>
<g filter="url(#filter8_b_1035_13132)">
<rect x="90" y="90" width="35" height="35" rx="5" fill="#59D3D4" fill-opacity="0.1"/>
</g>
<path d="M112.125 107.25C112.125 108.066 111.883 108.863 111.43 109.542C110.977 110.22 110.332 110.749 109.579 111.061C108.825 111.373 107.995 111.455 107.195 111.296C106.395 111.137 105.66 110.744 105.083 110.167C104.506 109.59 104.113 108.855 103.954 108.055C103.795 107.255 103.877 106.425 104.189 105.671C104.501 104.918 105.03 104.273 105.708 103.82C106.387 103.367 107.184 103.125 108 103.125C109.094 103.126 110.142 103.561 110.915 104.335C111.689 105.108 112.124 106.156 112.125 107.25ZM117.75 108C117.75 109.928 117.178 111.813 116.107 113.417C115.035 115.02 113.513 116.27 111.731 117.008C109.95 117.746 107.989 117.939 106.098 117.563C104.207 117.186 102.469 116.258 101.106 114.894C99.7421 113.531 98.8135 111.793 98.4373 109.902C98.0611 108.011 98.2542 106.05 98.9922 104.269C99.7301 102.487 100.98 100.965 102.583 99.8932C104.187 98.8218 106.072 98.25 108 98.25C110.585 98.2527 113.063 99.2808 114.891 101.109C116.719 102.937 117.747 105.415 117.75 108ZM116.25 108C116.249 106.89 116.024 105.791 115.588 104.769C115.152 103.748 114.515 102.825 113.715 102.055C112.914 101.286 111.967 100.685 110.929 100.291C109.891 99.8956 108.784 99.714 107.675 99.7566C103.259 99.9272 99.7378 103.605 99.75 108.023C99.7542 110.035 100.496 111.975 101.835 113.476C102.38 112.685 103.073 112.007 103.875 111.478C103.943 111.433 104.025 111.411 104.106 111.417C104.188 111.422 104.266 111.454 104.328 111.508C105.347 112.39 106.65 112.875 107.997 112.875C109.345 112.875 110.647 112.39 111.667 111.508C111.728 111.454 111.806 111.422 111.888 111.417C111.97 111.411 112.051 111.433 112.119 111.478C112.922 112.006 113.616 112.685 114.162 113.476C115.508 111.969 116.251 110.02 116.25 108Z" fill="#59D3D4"/>
<defs>
<filter id="filter0_b_1035_13132" x="-20" y="-20" width="75" height="75" filterUnits="userSpaceOnUse" color-interpolation-filters="sRGB">
<feFlood flood-opacity="0" result="BackgroundImageFix"/>
<feGaussianBlur in="BackgroundImageFix" stdDeviation="10"/>
<feComposite in2="SourceAlpha" operator="in" result="effect1_backgroundBlur_1035_13132"/>
<feBlend mode="normal" in="SourceGraphic" in2="effect1_backgroundBlur_1035_13132" result="shape"/>
</filter>
<filter id="filter1_b_1035_13132" x="25" y="-20" width="75" height="75" filterUnits="userSpaceOnUse" color-interpolation-filters="sRGB">
<feFlood flood-opacity="0" result="BackgroundImageFix"/>
<feGaussianBlur in="BackgroundImageFix" stdDeviation="10"/>
<feComposite in2="SourceAlpha" operator="in" result="effect1_backgroundBlur_1035_13132"/>
<feBlend mode="normal" in="SourceGraphic" in2="effect1_backgroundBlur_1035_13132" result="shape"/>
</filter>
<filter id="filter2_b_1035_13132" x="70" y="-20" width="75" height="75" filterUnits="userSpaceOnUse" color-interpolation-filters="sRGB">
<feFlood flood-opacity="0" result="BackgroundImageFix"/>
<feGaussianBlur in="BackgroundImageFix" stdDeviation="10"/>
<feComposite in2="SourceAlpha" operator="in" result="effect1_backgroundBlur_1035_13132"/>
<feBlend mode="normal" in="SourceGraphic" in2="effect1_backgroundBlur_1035_13132" result="shape"/>
</filter>
<filter id="filter3_b_1035_13132" x="-20" y="25" width="75" height="75" filterUnits="userSpaceOnUse" color-interpolation-filters="sRGB">
<feFlood flood-opacity="0" result="BackgroundImageFix"/>
<feGaussianBlur in="BackgroundImageFix" stdDeviation="10"/>
<feComposite in2="SourceAlpha" operator="in" result="effect1_backgroundBlur_1035_13132"/>
<feBlend mode="normal" in="SourceGraphic" in2="effect1_backgroundBlur_1035_13132" result="shape"/>
</filter>
<filter id="filter4_b_1035_13132" x="25" y="25" width="75" height="75" filterUnits="userSpaceOnUse" color-interpolation-filters="sRGB">
<feFlood flood-opacity="0" result="BackgroundImageFix"/>
<feGaussianBlur in="BackgroundImageFix" stdDeviation="10"/>
<feComposite in2="SourceAlpha" operator="in" result="effect1_backgroundBlur_1035_13132"/>
<feBlend mode="normal" in="SourceGraphic" in2="effect1_backgroundBlur_1035_13132" result="shape"/>
</filter>
<filter id="filter5_b_1035_13132" x="70" y="25" width="75" height="75" filterUnits="userSpaceOnUse" color-interpolation-filters="sRGB">
<feFlood flood-opacity="0" result="BackgroundImageFix"/>
<feGaussianBlur in="BackgroundImageFix" stdDeviation="10"/>
<feComposite in2="SourceAlpha" operator="in" result="effect1_backgroundBlur_1035_13132"/>
<feBlend mode="normal" in="SourceGraphic" in2="effect1_backgroundBlur_1035_13132" result="shape"/>
</filter>
<filter id="filter6_b_1035_13132" x="-20" y="70" width="75" height="75" filterUnits="userSpaceOnUse" color-interpolation-filters="sRGB">
<feFlood flood-opacity="0" result="BackgroundImageFix"/>
<feGaussianBlur in="BackgroundImageFix" stdDeviation="10"/>
<feComposite in2="SourceAlpha" operator="in" result="effect1_backgroundBlur_1035_13132"/>
<feBlend mode="normal" in="SourceGraphic" in2="effect1_backgroundBlur_1035_13132" result="shape"/>
</filter>
<filter id="filter7_b_1035_13132" x="25" y="70" width="75" height="75" filterUnits="userSpaceOnUse" color-interpolation-filters="sRGB">
<feFlood flood-opacity="0" result="BackgroundImageFix"/>
<feGaussianBlur in="BackgroundImageFix" stdDeviation="10"/>
<feComposite in2="SourceAlpha" operator="in" result="effect1_backgroundBlur_1035_13132"/>
<feBlend mode="normal" in="SourceGraphic" in2="effect1_backgroundBlur_1035_13132" result="shape"/>
</filter>
<filter id="filter8_b_1035_13132" x="70" y="70" width="75" height="75" filterUnits="userSpaceOnUse" color-interpolation-filters="sRGB">
<feFlood flood-opacity="0" result="BackgroundImageFix"/>
<feGaussianBlur in="BackgroundImageFix" stdDeviation="10"/>
<feComposite in2="SourceAlpha" operator="in" result="effect1_backgroundBlur_1035_13132"/>
<feBlend mode="normal" in="SourceGraphic" in2="effect1_backgroundBlur_1035_13132" result="shape"/>
</filter>
</defs>
</svg>
