<svg width="338" height="196" viewBox="0 0 338 196" fill="none" xmlns="http://www.w3.org/2000/svg">
<g opacity="0.05">
<rect y="4" width="8" height="8" rx="1" fill="#207FF1"/>
<rect x="15" y="4" width="8" height="8" rx="1" fill="#207FF1"/>
<rect x="30" y="4" width="8" height="8" rx="1" fill="white"/>
<rect x="45" y="4" width="8" height="8" rx="1" fill="#207FF1"/>
<rect x="60" y="4" width="8" height="8" rx="1" fill="#207FF1"/>
<rect x="75" y="4" width="8" height="8" rx="1" fill="#207FF1"/>
<rect x="90" y="4" width="8" height="8" rx="1" fill="white"/>
<rect x="105" y="4" width="8" height="8" rx="1" fill="#207FF1"/>
<rect x="120" y="4" width="8" height="8" rx="1" fill="#207FF1"/>
<rect x="135" y="4" width="8" height="8" rx="1" fill="#207FF1"/>
<rect x="150" y="4" width="8" height="8" rx="1" fill="#207FF1"/>
<rect x="165" y="4" width="8" height="8" rx="1" fill="#207FF1"/>
<rect x="180" y="4" width="8" height="8" rx="1" fill="#207FF1"/>
<rect x="195" y="4" width="8" height="8" rx="1" fill="white"/>
<rect x="210" y="4" width="8" height="8" rx="1" fill="#207FF1"/>
<rect x="225" y="4" width="8" height="8" rx="1" fill="#207FF1"/>
<rect x="240" y="4" width="8" height="8" rx="1" fill="#207FF1"/>
<rect x="255" y="4" width="8" height="8" rx="1" fill="#207FF1"/>
<rect x="270" y="4" width="8" height="8" rx="1" fill="#207FF1"/>
<rect x="285" y="4" width="8" height="8" rx="1" fill="#207FF1"/>
<rect x="300" y="4" width="8" height="8" rx="1" fill="white"/>
<rect x="315" y="4" width="8" height="8" rx="1" fill="#207FF1"/>
<rect x="330" y="4" width="8" height="8" rx="1" fill="#207FF1"/>
<rect y="19" width="8" height="8" rx="1" fill="#207FF1"/>
<rect x="15" y="19" width="8" height="8" rx="1" fill="#207FF1"/>
<rect x="30" y="19" width="8" height="8" rx="1" fill="white"/>
<rect x="45" y="19" width="8" height="8" rx="1" fill="#207FF1"/>
<rect x="60" y="19" width="8" height="8" rx="1" fill="#207FF1"/>
<rect x="75" y="19" width="8" height="8" rx="1" fill="#207FF1"/>
<rect x="90" y="19" width="8" height="8" rx="1" fill="white"/>
<rect x="105" y="19" width="8" height="8" rx="1" fill="#207FF1"/>
<rect x="120" y="19" width="8" height="8" rx="1" fill="#207FF1"/>
<rect x="135" y="19" width="8" height="8" rx="1" fill="#207FF1"/>
<rect x="150" y="19" width="8" height="8" rx="1" fill="#207FF1"/>
<rect x="165" y="19" width="8" height="8" rx="1" fill="#207FF1"/>
<rect x="180" y="19" width="8" height="8" rx="1" fill="#207FF1"/>
<rect x="195" y="19" width="8" height="8" rx="1" fill="white"/>
<rect x="210" y="19" width="8" height="8" rx="1" fill="#207FF1"/>
<rect x="225" y="19" width="8" height="8" rx="1" fill="#207FF1"/>
<rect x="240" y="19" width="8" height="8" rx="1" fill="#207FF1"/>
<rect x="255" y="19" width="8" height="8" rx="1" fill="#207FF1"/>
<rect x="270" y="19" width="8" height="8" rx="1" fill="#207FF1"/>
<rect x="285" y="19" width="8" height="8" rx="1" fill="#207FF1"/>
<rect x="300" y="19" width="8" height="8" rx="1" fill="white"/>
<rect x="315" y="19" width="8" height="8" rx="1" fill="#207FF1"/>
<rect x="330" y="19" width="8" height="8" rx="1" fill="#207FF1"/>
<rect y="34" width="8" height="8" rx="1" fill="#207FF1"/>
<rect x="15" y="34" width="8" height="8" rx="1" fill="#207FF1"/>
<rect x="30" y="34" width="8" height="8" rx="1" fill="white"/>
<rect x="45" y="34" width="8" height="8" rx="1" fill="#207FF1"/>
<rect x="60" y="34" width="8" height="8" rx="1" fill="#207FF1"/>
<rect x="75" y="34" width="8" height="8" rx="1" fill="#207FF1"/>
<rect x="90" y="34" width="8" height="8" rx="1" fill="white"/>
<rect x="105" y="34" width="8" height="8" rx="1" fill="#207FF1"/>
<rect x="120" y="34" width="8" height="8" rx="1" fill="#207FF1"/>
<rect x="135" y="34" width="8" height="8" rx="1" fill="#207FF1"/>
<rect x="150" y="34" width="8" height="8" rx="1" fill="#207FF1"/>
<rect x="165" y="34" width="8" height="8" rx="1" fill="#207FF1"/>
<rect x="180" y="34" width="8" height="8" rx="1" fill="#207FF1"/>
<rect x="195" y="34" width="8" height="8" rx="1" fill="white"/>
<rect x="210" y="34" width="8" height="8" rx="1" fill="#207FF1"/>
<rect x="225" y="34" width="8" height="8" rx="1" fill="#207FF1"/>
<rect x="240" y="34" width="8" height="8" rx="1" fill="#207FF1"/>
<rect x="255" y="34" width="8" height="8" rx="1" fill="#207FF1"/>
<rect x="270" y="34" width="8" height="8" rx="1" fill="#207FF1"/>
<rect x="285" y="34" width="8" height="8" rx="1" fill="#207FF1"/>
<rect x="300" y="34" width="8" height="8" rx="1" fill="white"/>
<rect x="315" y="34" width="8" height="8" rx="1" fill="#207FF1"/>
<rect x="330" y="34" width="8" height="8" rx="1" fill="#207FF1"/>
<rect y="49" width="8" height="8" rx="1" fill="#207FF1"/>
<rect x="15" y="49" width="8" height="8" rx="1" fill="white"/>
<rect x="30" y="49" width="8" height="8" rx="1" fill="#207FF1"/>
<rect x="45" y="49" width="8" height="8" rx="1" fill="#207FF1"/>
<rect x="60" y="49" width="8" height="8" rx="1" fill="#207FF1"/>
<rect x="75" y="49" width="8" height="8" rx="1" fill="#207FF1"/>
<rect x="90" y="49" width="8" height="8" rx="1" fill="#207FF1"/>
<rect x="105" y="49" width="8" height="8" rx="1" fill="white"/>
<rect x="120" y="49" width="8" height="8" rx="1" fill="#207FF1"/>
<rect x="135" y="49" width="8" height="8" rx="1" fill="#207FF1"/>
<rect x="150" y="49" width="8" height="8" rx="1" fill="#207FF1"/>
<rect x="165" y="49" width="8" height="8" rx="1" fill="#207FF1"/>
<rect x="180" y="49" width="8" height="8" rx="1" fill="#207FF1"/>
<rect x="195" y="49" width="8" height="8" rx="1" fill="#207FF1"/>
<rect x="210" y="49" width="8" height="8" rx="1" fill="#207FF1"/>
<rect x="225" y="49" width="8" height="8" rx="1" fill="#207FF1"/>
<rect x="240" y="49" width="8" height="8" rx="1" fill="#207FF1"/>
<rect x="255" y="49" width="8" height="8" rx="1" fill="white"/>
<rect x="270" y="49" width="8" height="8" rx="1" fill="#207FF1"/>
<rect x="285" y="49" width="8" height="8" rx="1" fill="#207FF1"/>
<rect x="300" y="49" width="8" height="8" rx="1" fill="#207FF1"/>
<rect x="315" y="49" width="8" height="8" rx="1" fill="#207FF1"/>
<rect x="330" y="49" width="8" height="8" rx="1" fill="white"/>
<rect y="64" width="8" height="8" rx="1" fill="#207FF1"/>
<rect x="15" y="64" width="8" height="8" rx="1" fill="#207FF1"/>
<rect x="30" y="64" width="8" height="8" rx="1" fill="#207FF1"/>
<rect x="45" y="64" width="8" height="8" rx="1" fill="white"/>
<rect x="60" y="64" width="8" height="8" rx="1" fill="#207FF1"/>
<rect x="75" y="64" width="8" height="8" rx="1" fill="#207FF1"/>
<rect x="90" y="64" width="8" height="8" rx="1" fill="#207FF1"/>
<rect x="105" y="64" width="8" height="8" rx="1" fill="#207FF1"/>
<rect x="120" y="64" width="8" height="8" rx="1" fill="#207FF1"/>
<rect x="135" y="64" width="8" height="8" rx="1" fill="#207FF1"/>
<rect x="150" y="64" width="8" height="8" rx="1" fill="white"/>
<rect x="165" y="64" width="8" height="8" rx="1" fill="#207FF1"/>
<rect x="180" y="64" width="8" height="8" rx="1" fill="#207FF1"/>
<rect x="195" y="64" width="8" height="8" rx="1" fill="#207FF1"/>
<rect x="210" y="64" width="8" height="8" rx="1" fill="#207FF1"/>
<rect x="225" y="64" width="8" height="8" rx="1" fill="#207FF1"/>
<rect x="240" y="64" width="8" height="8" rx="1" fill="#207FF1"/>
<rect x="255" y="64" width="8" height="8" rx="1" fill="#207FF1"/>
<rect x="270" y="64" width="8" height="8" rx="1" fill="#207FF1"/>
<rect x="285" y="64" width="8" height="8" rx="1" fill="#207FF1"/>
<rect x="300" y="64" width="8" height="8" rx="1" fill="#207FF1"/>
<rect x="315" y="64" width="8" height="8" rx="1" fill="white"/>
<rect x="330" y="64" width="8" height="8" rx="1" fill="#207FF1"/>
<rect y="79" width="8" height="8" rx="1" fill="white"/>
<rect x="15" y="79" width="8" height="8" rx="1" fill="#207FF1"/>
<rect x="30" y="79" width="8" height="8" rx="1" fill="#207FF1"/>
<rect x="45" y="79" width="8" height="8" rx="1" fill="#207FF1"/>
<rect x="60" y="79" width="8" height="8" rx="1" fill="#207FF1"/>
<rect x="75" y="79" width="8" height="8" rx="1" fill="#207FF1"/>
<rect x="90" y="79" width="8" height="8" rx="1" fill="#207FF1"/>
<rect x="105" y="79" width="8" height="8" rx="1" fill="#207FF1"/>
<rect x="120" y="79" width="8" height="8" rx="1" fill="#207FF1"/>
<rect x="135" y="79" width="8" height="8" rx="1" fill="#207FF1"/>
<rect x="150" y="79" width="8" height="8" rx="1" fill="#207FF1"/>
<rect x="165" y="79" width="8" height="8" rx="1" fill="#207FF1"/>
<rect x="180" y="79" width="8" height="8" rx="1" fill="#207FF1"/>
<rect x="195" y="79" width="8" height="8" rx="1" fill="#207FF1"/>
<rect x="210" y="79" width="8" height="8" rx="1" fill="white"/>
<rect x="225" y="79" width="8" height="8" rx="1" fill="#207FF1"/>
<rect x="240" y="79" width="8" height="8" rx="1" fill="#207FF1"/>
<rect x="255" y="79" width="8" height="8" rx="1" fill="#207FF1"/>
<rect x="270" y="79" width="8" height="8" rx="1" fill="#207FF1"/>
<rect x="285" y="79" width="8" height="8" rx="1" fill="white"/>
<rect x="300" y="79" width="8" height="8" rx="1" fill="#207FF1"/>
<rect x="315" y="79" width="8" height="8" rx="1" fill="#207FF1"/>
<rect x="330" y="79" width="8" height="8" rx="1" fill="#207FF1"/>
<rect y="94" width="8" height="8" rx="1" fill="#207FF1"/>
<rect x="15" y="94" width="8" height="8" rx="1" fill="#207FF1"/>
<rect x="30" y="94" width="8" height="8" rx="1" fill="#207FF1"/>
<rect x="45" y="94" width="8" height="8" rx="1" fill="#207FF1"/>
<rect x="60" y="94" width="8" height="8" rx="1" fill="white"/>
<rect x="75" y="94" width="8" height="8" rx="1" fill="#207FF1"/>
<rect x="90" y="94" width="8" height="8" rx="1" fill="#207FF1"/>
<rect x="105" y="94" width="8" height="8" rx="1" fill="white"/>
<rect x="120" y="94" width="8" height="8" rx="1" fill="#207FF1"/>
<rect x="135" y="94" width="8" height="8" rx="1" fill="#207FF1"/>
<rect x="150" y="94" width="8" height="8" rx="1" fill="#207FF1"/>
<rect x="165" y="94" width="8" height="8" rx="1" fill="#207FF1"/>
<rect x="180" y="94" width="8" height="8" rx="1" fill="white"/>
<rect x="195" y="94" width="8" height="8" rx="1" fill="#207FF1"/>
<rect x="210" y="94" width="8" height="8" rx="1" fill="#207FF1"/>
<rect x="225" y="94" width="8" height="8" rx="1" fill="#207FF1"/>
<rect x="240" y="94" width="8" height="8" rx="1" fill="#207FF1"/>
<rect x="255" y="94" width="8" height="8" rx="1" fill="#207FF1"/>
<rect x="270" y="94" width="8" height="8" rx="1" fill="#207FF1"/>
<rect x="285" y="94" width="8" height="8" rx="1" fill="#207FF1"/>
<rect x="300" y="94" width="8" height="8" rx="1" fill="#207FF1"/>
<rect x="315" y="94" width="8" height="8" rx="1" fill="#207FF1"/>
<rect x="330" y="94" width="8" height="8" rx="1" fill="white"/>
<rect y="109" width="8" height="8" rx="1" fill="#207FF1"/>
<rect x="15" y="109" width="8" height="8" rx="1" fill="#207FF1"/>
<rect x="30" y="109" width="8" height="8" rx="1" fill="#207FF1"/>
<rect x="45" y="109" width="8" height="8" rx="1" fill="#207FF1"/>
<rect x="60" y="109" width="8" height="8" rx="1" fill="#207FF1"/>
<rect x="75" y="109" width="8" height="8" rx="1" fill="#207FF1"/>
<rect x="90" y="109" width="8" height="8" rx="1" fill="#207FF1"/>
<rect x="105" y="109" width="8" height="8" rx="1" fill="#207FF1"/>
<rect x="120" y="109" width="8" height="8" rx="1" fill="#207FF1"/>
<rect x="135" y="109" width="8" height="8" rx="1" fill="#207FF1"/>
<rect x="150" y="109" width="8" height="8" rx="1" fill="white"/>
<rect x="165" y="109" width="8" height="8" rx="1" fill="#207FF1"/>
<rect x="180" y="109" width="8" height="8" rx="1" fill="#207FF1"/>
<rect x="195" y="109" width="8" height="8" rx="1" fill="#207FF1"/>
<rect x="210" y="109" width="8" height="8" rx="1" fill="#207FF1"/>
<rect x="225" y="109" width="8" height="8" rx="1" fill="white"/>
<rect x="240" y="109" width="8" height="8" rx="1" fill="#207FF1"/>
<rect x="255" y="109" width="8" height="8" rx="1" fill="#207FF1"/>
<rect x="270" y="109" width="8" height="8" rx="1" fill="#207FF1"/>
<rect x="285" y="109" width="8" height="8" rx="1" fill="#207FF1"/>
<rect x="300" y="109" width="8" height="8" rx="1" fill="white"/>
<rect x="315" y="109" width="8" height="8" rx="1" fill="#207FF1"/>
<rect x="330" y="109" width="8" height="8" rx="1" fill="#207FF1"/>
<rect y="124" width="8" height="8" rx="1" fill="#207FF1"/>
<rect x="15" y="124" width="8" height="8" rx="1" fill="#207FF1"/>
<rect x="30" y="124" width="8" height="8" rx="1" fill="#207FF1"/>
<rect x="45" y="124" width="8" height="8" rx="1" fill="#207FF1"/>
<rect x="60" y="124" width="8" height="8" rx="1" fill="#207FF1"/>
<rect x="75" y="124" width="8" height="8" rx="1" fill="#207FF1"/>
<rect x="90" y="124" width="8" height="8" rx="1" fill="white"/>
<rect x="105" y="124" width="8" height="8" rx="1" fill="#207FF1"/>
<rect x="120" y="124" width="8" height="8" rx="1" fill="#207FF1"/>
<rect x="135" y="124" width="8" height="8" rx="1" fill="#207FF1"/>
<rect x="150" y="124" width="8" height="8" rx="1" fill="#207FF1"/>
<rect x="165" y="124" width="8" height="8" rx="1" fill="#207FF1"/>
<rect x="180" y="124" width="8" height="8" rx="1" fill="#207FF1"/>
<rect x="195" y="124" width="8" height="8" rx="1" fill="white"/>
<rect x="210" y="124" width="8" height="8" rx="1" fill="#207FF1"/>
<rect x="225" y="124" width="8" height="8" rx="1" fill="#207FF1"/>
<rect x="240" y="124" width="8" height="8" rx="1" fill="#207FF1"/>
<rect x="255" y="124" width="8" height="8" rx="1" fill="#207FF1"/>
<rect x="270" y="124" width="8" height="8" rx="1" fill="white"/>
<rect x="285" y="124" width="8" height="8" rx="1" fill="#207FF1"/>
<rect x="300" y="124" width="8" height="8" rx="1" fill="#207FF1"/>
<rect x="315" y="124" width="8" height="8" rx="1" fill="#207FF1"/>
<rect x="330" y="124" width="8" height="8" rx="1" fill="#207FF1"/>
<rect y="139" width="8" height="8" rx="1" fill="#207FF1"/>
<rect x="15" y="139" width="8" height="8" rx="1" fill="#207FF1"/>
<rect x="30" y="139" width="8" height="8" rx="1" fill="#207FF1"/>
<rect x="45" y="139" width="8" height="8" rx="1" fill="#207FF1"/>
<rect x="60" y="139" width="8" height="8" rx="1" fill="white"/>
<rect x="75" y="139" width="8" height="8" rx="1" fill="#207FF1"/>
<rect x="90" y="139" width="8" height="8" rx="1" fill="#207FF1"/>
<rect x="105" y="139" width="8" height="8" rx="1" fill="#207FF1"/>
<rect x="120" y="139" width="8" height="8" rx="1" fill="#207FF1"/>
<rect x="135" y="139" width="8" height="8" rx="1" fill="#207FF1"/>
<rect x="150" y="139" width="8" height="8" rx="1" fill="#207FF1"/>
<rect x="165" y="139" width="8" height="8" rx="1" fill="#207FF1"/>
<rect x="180" y="139" width="8" height="8" rx="1" fill="#207FF1"/>
<rect x="195" y="139" width="8" height="8" rx="1" fill="#207FF1"/>
<rect x="210" y="139" width="8" height="8" rx="1" fill="#207FF1"/>
<rect x="225" y="139" width="8" height="8" rx="1" fill="#207FF1"/>
<rect x="240" y="139" width="8" height="8" rx="1" fill="white"/>
<rect x="255" y="139" width="8" height="8" rx="1" fill="#207FF1"/>
<rect x="270" y="139" width="8" height="8" rx="1" fill="#207FF1"/>
<rect x="285" y="139" width="8" height="8" rx="1" fill="#207FF1"/>
<rect x="300" y="139" width="8" height="8" rx="1" fill="#207FF1"/>
<rect x="315" y="139" width="8" height="8" rx="1" fill="#207FF1"/>
<rect x="330" y="139" width="8" height="8" rx="1" fill="white"/>
<rect y="154" width="8" height="8" rx="1" fill="#207FF1"/>
<rect x="15" y="154" width="8" height="8" rx="1" fill="#207FF1"/>
<rect x="30" y="154" width="8" height="8" rx="1" fill="#207FF1"/>
<rect x="45" y="154" width="8" height="8" rx="1" fill="#207FF1"/>
<rect x="60" y="154" width="8" height="8" rx="1" fill="#207FF1"/>
<rect x="75" y="154" width="8" height="8" rx="1" fill="#207FF1"/>
<rect x="90" y="154" width="8" height="8" rx="1" fill="#207FF1"/>
<rect x="105" y="154" width="8" height="8" rx="1" fill="#207FF1"/>
<rect x="120" y="154" width="8" height="8" rx="1" fill="#207FF1"/>
<rect x="135" y="154" width="8" height="8" rx="1" fill="white"/>
<rect x="150" y="154" width="8" height="8" rx="1" fill="#207FF1"/>
<rect x="165" y="154" width="8" height="8" rx="1" fill="white"/>
<rect x="180" y="154" width="8" height="8" rx="1" fill="#207FF1"/>
<rect x="195" y="154" width="8" height="8" rx="1" fill="#207FF1"/>
<rect x="210" y="154" width="8" height="8" rx="1" fill="#207FF1"/>
<rect x="225" y="154" width="8" height="8" rx="1" fill="#207FF1"/>
<rect x="240" y="154" width="8" height="8" rx="1" fill="#207FF1"/>
<rect x="255" y="154" width="8" height="8" rx="1" fill="#207FF1"/>
<rect x="270" y="154" width="8" height="8" rx="1" fill="white"/>
<rect x="285" y="154" width="8" height="8" rx="1" fill="#207FF1"/>
<rect x="300" y="154" width="8" height="8" rx="1" fill="#207FF1"/>
<rect x="315" y="154" width="8" height="8" rx="1" fill="#207FF1"/>
<rect x="330" y="154" width="8" height="8" rx="1" fill="#207FF1"/>
<rect y="169" width="8" height="8" rx="1" fill="#207FF1"/>
<rect x="15" y="169" width="8" height="8" rx="1" fill="#207FF1"/>
<rect x="30" y="169" width="8" height="8" rx="1" fill="#207FF1"/>
<rect x="45" y="169" width="8" height="8" rx="1" fill="#207FF1"/>
<rect x="60" y="169" width="8" height="8" rx="1" fill="#207FF1"/>
<rect x="75" y="169" width="8" height="8" rx="1" fill="#207FF1"/>
<rect x="90" y="169" width="8" height="8" rx="1" fill="#207FF1"/>
<rect x="105" y="169" width="8" height="8" rx="1" fill="white"/>
<rect x="120" y="169" width="8" height="8" rx="1" fill="#207FF1"/>
<rect x="135" y="169" width="8" height="8" rx="1" fill="#207FF1"/>
<rect x="150" y="169" width="8" height="8" rx="1" fill="#207FF1"/>
<rect x="165" y="169" width="8" height="8" rx="1" fill="#207FF1"/>
<rect x="180" y="169" width="8" height="8" rx="1" fill="#207FF1"/>
<rect x="195" y="169" width="8" height="8" rx="1" fill="#207FF1"/>
<rect x="210" y="169" width="8" height="8" rx="1" fill="white"/>
<rect x="225" y="169" width="8" height="8" rx="1" fill="#207FF1"/>
<rect x="240" y="169" width="8" height="8" rx="1" fill="#207FF1"/>
<rect x="255" y="169" width="8" height="8" rx="1" fill="#207FF1"/>
<rect x="270" y="169" width="8" height="8" rx="1" fill="#207FF1"/>
<rect x="285" y="169" width="8" height="8" rx="1" fill="#207FF1"/>
<rect x="300" y="169" width="8" height="8" rx="1" fill="#207FF1"/>
<rect x="315" y="169" width="8" height="8" rx="1" fill="#207FF1"/>
<rect x="330" y="169" width="8" height="8" rx="1" fill="white"/>
<rect y="184" width="8" height="8" rx="1" fill="#207FF1"/>
<rect x="15" y="184" width="8" height="8" rx="1" fill="#207FF1"/>
<rect x="30" y="184" width="8" height="8" rx="1" fill="#207FF1"/>
<rect x="45" y="184" width="8" height="8" rx="1" fill="#207FF1"/>
<rect x="60" y="184" width="8" height="8" rx="1" fill="#207FF1"/>
<rect x="75" y="184" width="8" height="8" rx="1" fill="#207FF1"/>
<rect x="90" y="184" width="8" height="8" rx="1" fill="#207FF1"/>
<rect x="105" y="184" width="8" height="8" rx="1" fill="#207FF1"/>
<rect x="120" y="184" width="8" height="8" rx="1" fill="#207FF1"/>
<rect x="135" y="184" width="8" height="8" rx="1" fill="#207FF1"/>
<rect x="150" y="184" width="8" height="8" rx="1" fill="white"/>
<rect x="165" y="184" width="8" height="8" rx="1" fill="#207FF1"/>
<rect x="180" y="184" width="8" height="8" rx="1" fill="#207FF1"/>
<rect x="195" y="184" width="8" height="8" rx="1" fill="#207FF1"/>
<rect x="210" y="184" width="8" height="8" rx="1" fill="#207FF1"/>
<rect x="225" y="184" width="8" height="8" rx="1" fill="#207FF1"/>
<rect x="240" y="184" width="8" height="8" rx="1" fill="#207FF1"/>
<rect x="255" y="184" width="8" height="8" rx="1" fill="#207FF1"/>
<rect x="270" y="184" width="8" height="8" rx="1" fill="#207FF1"/>
<rect x="285" y="184" width="8" height="8" rx="1" fill="#207FF1"/>
<rect x="300" y="184" width="8" height="8" rx="1" fill="white"/>
<rect x="315" y="184" width="8" height="8" rx="1" fill="#207FF1"/>
<rect x="330" y="184" width="8" height="8" rx="1" fill="#207FF1"/>
</g>
</svg>
