<svg width="300" height="331" viewBox="0 0 300 331" fill="none" xmlns="http://www.w3.org/2000/svg">
<rect x="1" y="1" width="298" height="329" rx="9.5" fill="white"/>
<rect x="1" y="1" width="298" height="329" rx="9.5" stroke="#E6E6E6"/>
<g clip-path="url(#clip0_1014_86692)">
<path d="M2 10.5C2 5.52944 6.02944 1.5 11 1.5H290C294.971 1.5 299 5.52944 299 10.5V85.5H2V10.5Z" fill="#C9C8D2"/>
<g opacity="0.02">
<rect x="2" y="0.181641" width="7.05011" height="7.05011" rx="0.881264" fill="#652D90"/>
<rect x="15.2188" y="0.181641" width="7.05011" height="7.05011" rx="0.881264" fill="white"/>
<rect x="28.438" y="0.181641" width="7.05011" height="7.05011" rx="0.881264" fill="#652D90"/>
<rect x="41.6567" y="0.181641" width="7.05011" height="7.05011" rx="0.881264" fill="#652D90"/>
<rect x="54.876" y="0.181641" width="7.05011" height="7.05011" rx="0.881264" fill="#652D90"/>
<rect x="68.0947" y="0.181641" width="7.05011" height="7.05011" rx="0.881264" fill="#652D90"/>
<rect x="81.314" y="0.181641" width="7.05011" height="7.05011" rx="0.881264" fill="#652D90"/>
<rect x="94.5327" y="0.181641" width="7.05011" height="7.05011" rx="0.881264" fill="white"/>
<rect x="107.752" y="0.181641" width="7.05011" height="7.05011" rx="0.881264" fill="#652D90"/>
<rect x="120.971" y="0.181641" width="7.05011" height="7.05011" rx="0.881264" fill="#652D90"/>
<rect x="134.189" y="0.181641" width="7.05011" height="7.05011" rx="0.881264" fill="#652D90"/>
<rect x="147.409" y="0.181641" width="7.05011" height="7.05011" rx="0.881264" fill="#652D90"/>
<rect x="160.627" y="0.181641" width="7.05011" height="7.05011" rx="0.881264" fill="#652D90"/>
<rect x="173.847" y="0.181641" width="7.05011" height="7.05011" rx="0.881264" fill="#652D90"/>
<rect x="187.065" y="0.181641" width="7.05011" height="7.05011" rx="0.881264" fill="#652D90"/>
<rect x="200.285" y="0.181641" width="7.05011" height="7.05011" rx="0.881264" fill="#652D90"/>
<rect x="213.503" y="0.181641" width="7.05011" height="7.05011" rx="0.881264" fill="#652D90"/>
<rect x="226.722" y="0.181641" width="7.05011" height="7.05011" rx="0.881264" fill="white"/>
<rect x="239.941" y="0.181641" width="7.05011" height="7.05011" rx="0.881264" fill="#652D90"/>
<rect x="253.16" y="0.181641" width="7.05011" height="7.05011" rx="0.881264" fill="#652D90"/>
<rect x="266.379" y="0.181641" width="7.05011" height="7.05011" rx="0.881264" fill="#652D90"/>
<rect x="279.598" y="0.181641" width="7.05011" height="7.05011" rx="0.881264" fill="#652D90"/>
<rect x="292.817" y="0.181641" width="7.05011" height="7.05011" rx="0.881264" fill="white"/>
<rect x="2" y="13.4014" width="7.05011" height="7.05011" rx="0.881264" fill="#652D90"/>
<rect x="15.2192" y="13.4014" width="7.05011" height="7.05011" rx="0.881264" fill="#652D90"/>
<rect x="28.438" y="13.4014" width="7.05011" height="7.05011" rx="0.881264" fill="#652D90"/>
<rect x="41.6572" y="13.4014" width="7.05011" height="7.05011" rx="0.881264" fill="white"/>
<rect x="54.876" y="13.4014" width="7.05011" height="7.05011" rx="0.881264" fill="#652D90"/>
<rect x="68.0947" y="13.4014" width="7.05011" height="7.05011" rx="0.881264" fill="#652D90"/>
<rect x="81.3135" y="13.4014" width="7.05011" height="7.05011" rx="0.881264" fill="#652D90"/>
<rect x="94.5327" y="13.4014" width="7.05011" height="7.05011" rx="0.881264" fill="#652D90"/>
<rect x="107.751" y="13.4014" width="7.05011" height="7.05011" rx="0.881264" fill="#652D90"/>
<rect x="120.971" y="13.4014" width="7.05011" height="7.05011" rx="0.881264" fill="#652D90"/>
<rect x="134.19" y="13.4014" width="7.05011" height="7.05011" rx="0.881264" fill="white"/>
<rect x="147.409" y="13.4014" width="7.05011" height="7.05011" rx="0.881264" fill="#652D90"/>
<rect x="160.628" y="13.4014" width="7.05011" height="7.05011" rx="0.881264" fill="#652D90"/>
<rect x="173.847" y="13.4014" width="7.05011" height="7.05011" rx="0.881264" fill="#652D90"/>
<rect x="187.065" y="13.4014" width="7.05011" height="7.05011" rx="0.881264" fill="#652D90"/>
<rect x="200.284" y="13.4014" width="7.05011" height="7.05011" rx="0.881264" fill="#652D90"/>
<rect x="213.503" y="13.4014" width="7.05011" height="7.05011" rx="0.881264" fill="#652D90"/>
<rect x="226.722" y="13.4014" width="7.05011" height="7.05011" rx="0.881264" fill="#652D90"/>
<rect x="239.941" y="13.4014" width="7.05011" height="7.05011" rx="0.881264" fill="#652D90"/>
<rect x="253.16" y="13.4014" width="7.05011" height="7.05011" rx="0.881264" fill="#652D90"/>
<rect x="266.379" y="13.4014" width="7.05011" height="7.05011" rx="0.881264" fill="#652D90"/>
<rect x="279.599" y="13.4014" width="7.05011" height="7.05011" rx="0.881264" fill="white"/>
<rect x="292.817" y="13.4014" width="7.05011" height="7.05011" rx="0.881264" fill="#652D90"/>
<rect x="2" y="26.6201" width="7.05011" height="7.05011" rx="0.881264" fill="white"/>
<rect x="15.2188" y="26.6201" width="7.05011" height="7.05011" rx="0.881264" fill="#652D90"/>
<rect x="28.438" y="26.6201" width="7.05011" height="7.05011" rx="0.881264" fill="#652D90"/>
<rect x="41.6567" y="26.6201" width="7.05011" height="7.05011" rx="0.881264" fill="#652D90"/>
<rect x="54.876" y="26.6201" width="7.05011" height="7.05011" rx="0.881264" fill="#652D90"/>
<rect x="68.0947" y="26.6201" width="7.05011" height="7.05011" rx="0.881264" fill="#652D90"/>
<rect x="81.314" y="26.6201" width="7.05011" height="7.05011" rx="0.881264" fill="#652D90"/>
<rect x="94.5327" y="26.6201" width="7.05011" height="7.05011" rx="0.881264" fill="#652D90"/>
<rect x="107.752" y="26.6201" width="7.05011" height="7.05011" rx="0.881264" fill="#652D90"/>
<rect x="120.971" y="26.6201" width="7.05011" height="7.05011" rx="0.881264" fill="#652D90"/>
<rect x="134.189" y="26.6201" width="7.05011" height="7.05011" rx="0.881264" fill="#652D90"/>
<rect x="147.409" y="26.6201" width="7.05011" height="7.05011" rx="0.881264" fill="#652D90"/>
<rect x="160.627" y="26.6201" width="7.05011" height="7.05011" rx="0.881264" fill="#652D90"/>
<rect x="173.847" y="26.6201" width="7.05011" height="7.05011" rx="0.881264" fill="#652D90"/>
<rect x="187.065" y="26.6201" width="7.05011" height="7.05011" rx="0.881264" fill="white"/>
<rect x="200.285" y="26.6201" width="7.05011" height="7.05011" rx="0.881264" fill="#652D90"/>
<rect x="213.503" y="26.6201" width="7.05011" height="7.05011" rx="0.881264" fill="#652D90"/>
<rect x="226.722" y="26.6201" width="7.05011" height="7.05011" rx="0.881264" fill="#652D90"/>
<rect x="239.941" y="26.6201" width="7.05011" height="7.05011" rx="0.881264" fill="#652D90"/>
<rect x="253.16" y="26.6201" width="7.05011" height="7.05011" rx="0.881264" fill="white"/>
<rect x="266.379" y="26.6201" width="7.05011" height="7.05011" rx="0.881264" fill="#652D90"/>
<rect x="279.598" y="26.6201" width="7.05011" height="7.05011" rx="0.881264" fill="#652D90"/>
<rect x="292.817" y="26.6201" width="7.05011" height="7.05011" rx="0.881264" fill="#652D90"/>
<rect x="2" y="39.8389" width="7.05011" height="7.05011" rx="0.881264" fill="#652D90"/>
<rect x="15.2188" y="39.8389" width="7.05011" height="7.05011" rx="0.881264" fill="#652D90"/>
<rect x="28.438" y="39.8389" width="7.05011" height="7.05011" rx="0.881264" fill="#652D90"/>
<rect x="41.6567" y="39.8389" width="7.05011" height="7.05011" rx="0.881264" fill="#652D90"/>
<rect x="54.876" y="39.8389" width="7.05011" height="7.05011" rx="0.881264" fill="white"/>
<rect x="68.0947" y="39.8389" width="7.05011" height="7.05011" rx="0.881264" fill="#652D90"/>
<rect x="81.3135" y="39.8389" width="7.05011" height="7.05011" rx="0.881264" fill="#652D90"/>
<rect x="94.5327" y="39.8389" width="7.05011" height="7.05011" rx="0.881264" fill="white"/>
<rect x="107.751" y="39.8389" width="7.05011" height="7.05011" rx="0.881264" fill="#652D90"/>
<rect x="120.971" y="39.8389" width="7.05011" height="7.05011" rx="0.881264" fill="#652D90"/>
<rect x="134.189" y="39.8389" width="7.05011" height="7.05011" rx="0.881264" fill="#652D90"/>
<rect x="147.409" y="39.8389" width="7.05011" height="7.05011" rx="0.881264" fill="#652D90"/>
<rect x="160.627" y="39.8389" width="7.05011" height="7.05011" rx="0.881264" fill="white"/>
<rect x="173.847" y="39.8389" width="7.05011" height="7.05011" rx="0.881264" fill="#652D90"/>
<rect x="187.065" y="39.8389" width="7.05011" height="7.05011" rx="0.881264" fill="#652D90"/>
<rect x="200.284" y="39.8389" width="7.05011" height="7.05011" rx="0.881264" fill="#652D90"/>
<rect x="213.503" y="39.8389" width="7.05011" height="7.05011" rx="0.881264" fill="#652D90"/>
<rect x="226.722" y="39.8389" width="7.05011" height="7.05011" rx="0.881264" fill="#652D90"/>
<rect x="239.941" y="39.8389" width="7.05011" height="7.05011" rx="0.881264" fill="#652D90"/>
<rect x="253.16" y="39.8389" width="7.05011" height="7.05011" rx="0.881264" fill="#652D90"/>
<rect x="266.379" y="39.8389" width="7.05011" height="7.05011" rx="0.881264" fill="#652D90"/>
<rect x="279.599" y="39.8389" width="7.05011" height="7.05011" rx="0.881264" fill="#652D90"/>
<rect x="292.817" y="39.8389" width="7.05011" height="7.05011" rx="0.881264" fill="white"/>
<rect x="2" y="53.0576" width="7.05011" height="7.05011" rx="0.881264" fill="#652D90"/>
<rect x="15.2192" y="53.0576" width="7.05011" height="7.05011" rx="0.881264" fill="#652D90"/>
<rect x="28.438" y="53.0576" width="7.05011" height="7.05011" rx="0.881264" fill="#652D90"/>
<rect x="41.6572" y="53.0576" width="7.05011" height="7.05011" rx="0.881264" fill="#652D90"/>
<rect x="54.876" y="53.0576" width="7.05011" height="7.05011" rx="0.881264" fill="#652D90"/>
<rect x="68.0947" y="53.0576" width="7.05011" height="7.05011" rx="0.881264" fill="#652D90"/>
<rect x="81.3135" y="53.0576" width="7.05011" height="7.05011" rx="0.881264" fill="#652D90"/>
<rect x="94.5327" y="53.0576" width="7.05011" height="7.05011" rx="0.881264" fill="#652D90"/>
<rect x="107.751" y="53.0576" width="7.05011" height="7.05011" rx="0.881264" fill="#652D90"/>
<rect x="120.971" y="53.0576" width="7.05011" height="7.05011" rx="0.881264" fill="#652D90"/>
<rect x="134.19" y="53.0576" width="7.05011" height="7.05011" rx="0.881264" fill="white"/>
<rect x="147.409" y="53.0576" width="7.05011" height="7.05011" rx="0.881264" fill="#652D90"/>
<rect x="160.628" y="53.0576" width="7.05011" height="7.05011" rx="0.881264" fill="#652D90"/>
<rect x="173.847" y="53.0576" width="7.05011" height="7.05011" rx="0.881264" fill="#652D90"/>
<rect x="187.065" y="53.0576" width="7.05011" height="7.05011" rx="0.881264" fill="#652D90"/>
<rect x="200.284" y="53.0576" width="7.05011" height="7.05011" rx="0.881264" fill="white"/>
<rect x="213.503" y="53.0576" width="7.05011" height="7.05011" rx="0.881264" fill="#652D90"/>
<rect x="226.722" y="53.0576" width="7.05011" height="7.05011" rx="0.881264" fill="#652D90"/>
<rect x="239.941" y="53.0576" width="7.05011" height="7.05011" rx="0.881264" fill="#652D90"/>
<rect x="253.16" y="53.0576" width="7.05011" height="7.05011" rx="0.881264" fill="#652D90"/>
<rect x="266.379" y="53.0576" width="7.05011" height="7.05011" rx="0.881264" fill="white"/>
<rect x="279.599" y="53.0576" width="7.05011" height="7.05011" rx="0.881264" fill="#652D90"/>
<rect x="292.817" y="53.0576" width="7.05011" height="7.05011" rx="0.881264" fill="#652D90"/>
<rect x="2" y="66.2764" width="7.05011" height="7.05011" rx="0.881264" fill="#652D90"/>
<rect x="15.2188" y="66.2764" width="7.05011" height="7.05011" rx="0.881264" fill="#652D90"/>
<rect x="28.438" y="66.2764" width="7.05011" height="7.05011" rx="0.881264" fill="#652D90"/>
<rect x="41.6567" y="66.2764" width="7.05011" height="7.05011" rx="0.881264" fill="#652D90"/>
<rect x="54.876" y="66.2764" width="7.05011" height="7.05011" rx="0.881264" fill="#652D90"/>
<rect x="68.0947" y="66.2764" width="7.05011" height="7.05011" rx="0.881264" fill="#652D90"/>
<rect x="81.314" y="66.2764" width="7.05011" height="7.05011" rx="0.881264" fill="white"/>
<rect x="94.5327" y="66.2764" width="7.05011" height="7.05011" rx="0.881264" fill="#652D90"/>
<rect x="107.752" y="66.2764" width="7.05011" height="7.05011" rx="0.881264" fill="#652D90"/>
<rect x="120.971" y="66.2764" width="7.05011" height="7.05011" rx="0.881264" fill="#652D90"/>
<rect x="134.189" y="66.2764" width="7.05011" height="7.05011" rx="0.881264" fill="#652D90"/>
<rect x="147.409" y="66.2764" width="7.05011" height="7.05011" rx="0.881264" fill="#652D90"/>
<rect x="160.627" y="66.2764" width="7.05011" height="7.05011" rx="0.881264" fill="#652D90"/>
<rect x="173.847" y="66.2764" width="7.05011" height="7.05011" rx="0.881264" fill="white"/>
<rect x="187.065" y="66.2764" width="7.05011" height="7.05011" rx="0.881264" fill="#652D90"/>
<rect x="200.285" y="66.2764" width="7.05011" height="7.05011" rx="0.881264" fill="#652D90"/>
<rect x="213.503" y="66.2764" width="7.05011" height="7.05011" rx="0.881264" fill="#652D90"/>
<rect x="226.722" y="66.2764" width="7.05011" height="7.05011" rx="0.881264" fill="#652D90"/>
<rect x="239.941" y="66.2764" width="7.05011" height="7.05011" rx="0.881264" fill="white"/>
<rect x="253.16" y="66.2764" width="7.05011" height="7.05011" rx="0.881264" fill="#652D90"/>
<rect x="266.379" y="66.2764" width="7.05011" height="7.05011" rx="0.881264" fill="#652D90"/>
<rect x="279.598" y="66.2764" width="7.05011" height="7.05011" rx="0.881264" fill="#652D90"/>
<rect x="292.817" y="66.2764" width="7.05011" height="7.05011" rx="0.881264" fill="#652D90"/>
<rect x="2" y="79.4961" width="7.05011" height="7.05011" rx="0.881264" fill="#652D90"/>
<rect x="15.2188" y="79.4961" width="7.05011" height="7.05011" rx="0.881264" fill="#652D90"/>
<rect x="28.438" y="79.4961" width="7.05011" height="7.05011" rx="0.881264" fill="#652D90"/>
<rect x="41.6567" y="79.4961" width="7.05011" height="7.05011" rx="0.881264" fill="#652D90"/>
<rect x="54.876" y="79.4961" width="7.05011" height="7.05011" rx="0.881264" fill="white"/>
<rect x="68.0947" y="79.4961" width="7.05011" height="7.05011" rx="0.881264" fill="#652D90"/>
<rect x="81.3135" y="79.4961" width="7.05011" height="7.05011" rx="0.881264" fill="#652D90"/>
<rect x="94.5327" y="79.4961" width="7.05011" height="7.05011" rx="0.881264" fill="#652D90"/>
<rect x="107.751" y="79.4961" width="7.05011" height="7.05011" rx="0.881264" fill="#652D90"/>
<rect x="120.971" y="79.4961" width="7.05011" height="7.05011" rx="0.881264" fill="#652D90"/>
<rect x="134.189" y="79.4961" width="7.05011" height="7.05011" rx="0.881264" fill="#652D90"/>
<rect x="147.409" y="79.4961" width="7.05011" height="7.05011" rx="0.881264" fill="#652D90"/>
<rect x="160.627" y="79.4961" width="7.05011" height="7.05011" rx="0.881264" fill="#652D90"/>
<rect x="173.847" y="79.4961" width="7.05011" height="7.05011" rx="0.881264" fill="#652D90"/>
<rect x="187.065" y="79.4961" width="7.05011" height="7.05011" rx="0.881264" fill="#652D90"/>
<rect x="200.284" y="79.4961" width="7.05011" height="7.05011" rx="0.881264" fill="#652D90"/>
<rect x="213.503" y="79.4961" width="7.05011" height="7.05011" rx="0.881264" fill="white"/>
<rect x="226.722" y="79.4961" width="7.05011" height="7.05011" rx="0.881264" fill="#652D90"/>
<rect x="239.941" y="79.4961" width="7.05011" height="7.05011" rx="0.881264" fill="#652D90"/>
<rect x="253.16" y="79.4961" width="7.05011" height="7.05011" rx="0.881264" fill="#652D90"/>
<rect x="266.379" y="79.4961" width="7.05011" height="7.05011" rx="0.881264" fill="#652D90"/>
<rect x="279.599" y="79.4961" width="7.05011" height="7.05011" rx="0.881264" fill="#652D90"/>
<rect x="292.817" y="79.4961" width="7.05011" height="7.05011" rx="0.881264" fill="white"/>
</g>
</g>
<rect x="65" y="67" width="171" height="37" rx="6" fill="white"/>
<rect x="66" y="68.5" width="34" height="34" rx="5" fill="black"/>
<rect x="76.5" y="78.5" width="13" height="13" rx="1" fill="white"/>
<rect x="110" y="78" width="106" height="15" rx="7.5" fill="#C9C8D2"/>
<rect x="29.5" y="114.5" width="241" height="20" rx="10" fill="#FAFAFA"/>
<line x1="44.5" y1="124" x2="96.5" y2="124" stroke="#E2E2E2" stroke-width="3"/>
<line x1="106.5" y1="124" x2="158.5" y2="124" stroke="#E2E2E2" stroke-width="3"/>
<line x1="168.5" y1="124" x2="200.5" y2="124" stroke="#E2E2E2" stroke-width="3"/>
<rect x="29.5" y="144.5" width="241" height="20" rx="10" fill="#FAFAFA"/>
<line x1="44.5" y1="154" x2="96.5" y2="154" stroke="#E2E2E2" stroke-width="3"/>
<line x1="106.5" y1="154" x2="158.5" y2="154" stroke="#E2E2E2" stroke-width="3"/>
<line x1="168.5" y1="154" x2="200.5" y2="154" stroke="#E2E2E2" stroke-width="3"/>
<rect x="29.5" y="174.5" width="241" height="20" rx="10" fill="#C9C8D2"/>
<rect width="9" height="9" transform="translate(44.5 179.5)" fill="#C9C8D2"/>
<path d="M49 179.5L50.0103 182.609H53.2798L50.6347 184.531L51.645 187.641L49 185.719L46.355 187.641L47.3653 184.531L44.7202 182.609H47.9897L49 179.5Z" fill="#FAFAFA"/>
<line x1="63.5" y1="184.5" x2="115.5" y2="184.5" stroke="#FAFAFA" stroke-width="3"/>
<line x1="125.5" y1="184.5" x2="177.5" y2="184.5" stroke="#FAFAFA" stroke-width="3"/>
<line x1="187.5" y1="184.5" x2="219.5" y2="184.5" stroke="#FAFAFA" stroke-width="3"/>
<rect x="29.5" y="204.5" width="241" height="20" rx="10" fill="#FAFAFA"/>
<line x1="44.5" y1="214" x2="96.5" y2="214" stroke="#E2E2E2" stroke-width="3"/>
<line x1="106.5" y1="214" x2="158.5" y2="214" stroke="#E2E2E2" stroke-width="3"/>
<line x1="168.5" y1="214" x2="200.5" y2="214" stroke="#E2E2E2" stroke-width="3"/>
<rect x="29.5" y="234.5" width="241" height="20" rx="10" fill="#C9C8D2"/>
<rect width="9" height="9" transform="translate(44.5 239.5)" fill="#C9C8D2"/>
<path d="M49 239.5L50.0103 242.609H53.2798L50.6347 244.531L51.645 247.641L49 245.719L46.355 247.641L47.3653 244.531L44.7202 242.609H47.9897L49 239.5Z" fill="#FAFAFA"/>
<line x1="63.5" y1="244.5" x2="115.5" y2="244.5" stroke="#FAFAFA" stroke-width="3"/>
<line x1="125.5" y1="244.5" x2="177.5" y2="244.5" stroke="#FAFAFA" stroke-width="3"/>
<line x1="187.5" y1="244.5" x2="219.5" y2="244.5" stroke="#FAFAFA" stroke-width="3"/>
<rect x="122.5" y="274.5" width="55" height="24" rx="5" fill="#C9C8D2"/>
<defs>
<clipPath id="clip0_1014_86692">
<rect width="297" height="84" fill="white" transform="translate(2 1.5)"/>
</clipPath>
</defs>
</svg>
