<svg width="766" height="189" viewBox="0 0 766 189" fill="none" xmlns="http://www.w3.org/2000/svg">
<path d="M238.79 67.049C238.613 67.0533 238.437 67.0172 238.275 66.9435C238.114 66.8699 237.972 66.7606 237.859 66.6239C237.732 66.5046 237.63 66.3606 237.561 66.2006C237.492 66.0407 237.456 65.8682 237.456 65.6939C237.456 65.5196 237.492 65.3472 237.561 65.1873C237.63 65.0273 237.732 64.8833 237.859 64.764C242.653 60.1477 246.113 54.325 247.873 47.9094C249.633 41.4939 249.628 34.7228 247.86 28.3096C243.767 29.4344 239.405 29.0327 235.587 27.1796C231.77 25.3265 228.758 22.1487 227.114 18.2395C226.497 16.7753 226.195 15.1981 226.227 13.6098C226.259 12.0216 226.624 10.4578 227.3 9.01967C227.715 8.1939 228.315 7.47451 229.053 6.91707C229.791 6.35963 230.647 5.97903 231.555 5.80465C234.215 5.29982 236.875 6.44232 239.535 9.2322C244.051 13.582 247.478 18.9347 249.535 24.8555C251.364 24.0294 253.003 22.8355 254.349 21.3483C259.057 16.1671 260.014 7.452 257.009 -1.92729C255.311 -7.7088 252.119 -12.9415 247.753 -17.0989C245.626 -19.0996 243.116 -20.649 240.373 -21.6537C237.63 -22.6584 234.712 -23.0974 231.795 -22.9444C231.621 -22.9222 231.444 -22.9361 231.276 -22.9852C231.107 -23.0343 230.951 -23.1175 230.816 -23.2297C230.681 -23.3419 230.571 -23.4806 230.492 -23.6372C230.414 -23.7939 230.368 -23.965 230.359 -24.14C230.34 -24.3132 230.357 -24.4883 230.408 -24.6549C230.458 -24.8215 230.542 -24.9763 230.653 -25.1101C230.765 -25.2439 230.902 -25.354 231.057 -25.4338C231.212 -25.5136 231.382 -25.5615 231.555 -25.5748C234.858 -25.8088 238.173 -25.3507 241.287 -24.2296C244.402 -23.1086 247.248 -21.3494 249.642 -19.0651C254.316 -14.6117 257.745 -9.0154 259.589 -2.83067C262.967 7.47858 261.77 17.1502 256.424 23.0487C254.752 24.8909 252.702 26.3502 250.413 27.3265C252.346 34.2185 252.377 41.5042 250.505 48.4126C248.632 55.3211 244.924 61.5951 239.774 66.5707C239.657 66.7198 239.508 66.8403 239.337 66.9232C239.167 67.0061 238.979 67.0491 238.79 67.049ZM232.726 8.35541H232.061C231.542 8.46037 231.055 8.68576 230.639 9.01347C230.223 9.34117 229.89 9.76197 229.667 10.2419C229.191 11.3314 228.945 12.5073 228.945 13.696C228.945 14.8847 229.191 16.0607 229.667 17.1502C230.679 19.4416 232.239 21.4495 234.21 22.997C236.181 24.5445 238.503 25.5842 240.971 26.0246C243.036 26.3574 245.148 26.2487 247.168 25.7058C245.243 20.177 242.067 15.1667 237.886 11.0655C236.569 9.54436 234.726 8.57634 232.726 8.35541Z" fill="#EB2F2F"/>
<mask id="mask0_1014_121746" style="mask-type:luminance" maskUnits="userSpaceOnUse" x="0" y="-577" width="766" height="766">
<path d="M766 -576.748H0V188.475H766V-576.748Z" fill="white"/>
</mask>
<g mask="url(#mask0_1014_121746)">
<path d="M106.389 181.22C106.921 180.237 107.852 179.467 110.432 178.563C109.834 177.475 108.902 176.609 107.772 176.092C106.177 176.786 104.786 177.874 103.729 179.254C104.802 179.61 105.734 180.299 106.389 181.22Z" fill="white"/>
<path d="M208.123 95.2928C207.622 94.8374 206.966 94.5903 206.288 94.602C205.972 96.685 205.278 98.6929 204.24 100.527C204.872 100.624 205.448 100.944 205.863 101.431C207.033 99.5627 207.802 97.4728 208.123 95.2928Z" fill="white"/>
<path d="M63.3281 137.221C63.8905 137.681 64.3183 138.285 64.5664 138.967C64.8145 139.65 64.8737 140.387 64.7378 141.101C66.6043 140.314 68.2617 139.104 69.5785 137.567C69.6429 136.925 69.5367 136.277 69.2705 135.689C69.0044 135.102 68.5876 134.594 68.0624 134.219C66.8164 135.665 65.1688 136.71 63.3281 137.221Z" fill="white"/>
<path d="M636.153 154.491C635.492 155.352 635.039 156.354 634.832 157.419C634.624 158.484 634.666 159.583 634.956 160.629C638.787 160.445 642.61 161.145 646.127 162.675C646.044 160.432 646.771 158.235 648.175 156.484C644.348 154.999 640.255 154.321 636.153 154.491Z" fill="white"/>
<path d="M44.1508 41.0098C43.6602 41.9323 42.8993 42.6832 41.9698 43.1619C42.1152 43.2938 42.2324 43.4534 42.3147 43.6314C42.3969 43.8095 42.4425 44.0022 42.4486 44.1982C43.5191 43.7432 44.4405 42.9976 45.1083 42.046C44.898 41.6141 44.565 41.2537 44.1508 41.0098Z" fill="white"/>
<path d="M746.344 110.996C745.93 112.275 745.799 113.629 745.96 114.964C746.121 116.298 746.569 117.583 747.275 118.728C751.739 118.603 756.203 119.005 760.573 119.923C760.301 118.498 760.392 117.026 760.839 115.645C755.799 114.842 750.91 113.274 746.344 110.996Z" fill="white"/>
<path d="M124.289 41.1963C122.959 41.5417 122.294 42.3654 121.23 43.8533C124.62 46.4841 127.503 49.7069 129.741 53.3654C130.569 52.3746 131.7 51.6836 132.96 51.3992C130.825 47.4237 127.869 43.9462 124.289 41.1963Z" fill="white"/>
<path d="M388.744 83.7085C389.886 84.5518 391.176 85.1736 392.548 85.5418C392.782 84.6717 392.782 83.7549 392.548 82.8848C391.667 82.7949 390.842 82.4111 390.207 81.7954C390.131 82.2068 389.959 82.5945 389.705 82.9269C389.451 83.2594 389.122 83.5271 388.744 83.7085Z" fill="white"/>
<path d="M734.428 23.2077C731.999 21.8335 729.239 21.1532 726.449 21.2415C725.553 22.6667 725.16 24.3501 725.332 26.0242C728.051 25.9255 730.739 26.6178 733.072 28.0169C732.866 27.1664 732.883 26.2773 733.12 25.4351C733.358 24.5928 733.808 23.8258 734.428 23.2077Z" fill="white"/>
<path d="M249.482 145.962C248.173 145.785 246.944 145.231 245.945 144.368C245.625 144.952 245.333 145.271 244.907 145.377C245.946 146.42 247.253 147.156 248.684 147.503C249.088 147.073 249.364 146.539 249.482 145.962Z" fill="white"/>
<path d="M530.083 179.148C530.165 179.676 530.131 180.216 529.984 180.73C529.837 181.244 529.58 181.719 529.231 182.124C531.943 183.169 534.792 183.813 537.689 184.037C538.382 182.938 538.759 181.67 538.78 180.371C535.824 180.732 532.824 180.31 530.083 179.148Z" fill="white"/>
<path d="M340.018 123.908C340.842 126.609 342.546 128.956 344.859 130.578C346.334 128.015 348.602 126.001 351.322 124.838C350.63 122.256 349.417 119.842 347.758 117.744C345.6 120.278 342.972 122.371 340.018 123.908Z" fill="white"/>
<path d="M506.144 115.938C504.089 116.261 501.987 115.816 500.24 114.689C499.967 117.945 500.245 121.224 501.064 124.387C503.015 124.484 504.964 124.167 506.783 123.457C506.004 121.031 505.786 118.46 506.144 115.938Z" fill="white"/>
<path d="M31.6241 81.7688C31.4322 79.9126 30.5945 78.1825 29.2569 76.8799C24.4726 80.4934 19.0629 83.1955 13.2986 84.851C14.3623 86.3133 14.8969 88.0934 14.8146 89.8993C20.9351 88.4206 26.6671 85.6482 31.6241 81.7688Z" fill="white"/>
<path d="M266.797 108.764C267.459 109.128 268.194 109.34 268.948 109.386C269.702 109.432 270.457 109.31 271.159 109.03C271.544 106.566 272.222 104.158 273.18 101.856C272.363 101.865 271.557 101.663 270.84 101.271C269.877 103.958 268.514 106.484 266.797 108.764Z" fill="white"/>
<path d="M414.916 164.881C416.095 164.682 417.172 164.092 417.975 163.207C416.977 162.444 416.25 161.383 415.9 160.178C414.778 160.321 413.699 160.702 412.735 161.294C413.682 162.341 414.422 163.558 414.916 164.881Z" fill="white"/>
<path d="M142.827 181.938C142.539 181.162 142.086 180.458 141.497 179.876C140.909 179.293 140.201 178.845 139.422 178.564C137.322 180.335 135.018 181.852 132.56 183.081C133.238 183.66 133.759 184.4 134.076 185.233C136.805 183.689 139.757 182.578 142.827 181.938Z" fill="white"/>
<path d="M589.022 108.764C590.003 107.903 590.786 106.84 591.314 105.647C591.842 104.454 592.104 103.16 592.081 101.856C588.243 99.7466 584.671 97.1866 581.442 94.23C580.971 95.5629 580.165 96.7524 579.101 97.6841C582.956 100.849 586.301 104.586 589.022 108.764Z" fill="white"/>
<path d="M671.579 62.5581C670.356 64.5174 669.805 66.8211 670.01 69.121C671.267 70.166 672.361 71.3929 673.255 72.7611C673.627 71.1934 674.531 70.5823 676.712 69.8915C674.623 67.7339 672.891 65.2586 671.579 62.5581Z" fill="white"/>
<path d="M147.375 165.172C147.539 162.192 147.179 159.207 146.311 156.351C144.555 156.891 142.975 157.891 141.737 159.247C142.554 160.891 142.816 162.756 142.481 164.561C143.292 164.297 144.151 164.215 144.997 164.321C145.843 164.427 146.655 164.717 147.375 165.172Z" fill="white"/>
<path d="M425.554 155.846C424.328 155.558 423.042 155.67 421.884 156.165C422.525 157.331 422.777 158.672 422.602 159.991C423.753 160.309 424.954 160.399 426.14 160.257C425.666 158.837 425.467 157.34 425.554 155.846Z" fill="white"/>
<path d="M712.433 23.0214C710.917 22.2243 709.773 20.7895 708.443 16.8306C706.762 17.701 705.415 19.1022 704.613 20.8161C705.655 23.2683 707.302 25.4166 709.401 27.0601C709.959 25.4275 711.02 24.0135 712.433 23.0214Z" fill="#F29339"/>
<path d="M750.466 10.1615C751.173 11.0638 751.676 12.1076 751.942 13.2218C752.209 14.3359 752.231 15.4944 752.009 16.6181C758.141 15.7505 764.115 14.0055 769.749 11.4369C769.918 8.66846 769.31 5.90795 767.994 3.46582C762.832 7.17939 756.791 9.48694 750.466 10.1615Z" fill="#EB2F2F"/>
<path d="M676.208 57.9882C676.924 57.1291 677.854 56.4749 678.906 56.0922C679.957 55.7094 681.091 55.6119 682.192 55.8095C680.97 52.9369 679.105 50.3826 676.74 48.3432C675.747 48.2491 674.748 48.4182 673.842 48.8334C672.936 49.2486 672.156 49.8952 671.58 50.708C673.807 52.6261 675.417 55.1589 676.208 57.9882Z" fill="#F29339"/>
<path d="M197.271 121.119C198.628 123.776 200.889 125.025 204.905 126.061C206.681 120.793 209.659 116.008 213.602 112.085C210.553 111.02 207.986 108.9 206.368 106.107C202.338 110.435 199.241 115.545 197.271 121.119Z" fill="#F29339"/>
<path d="M601.097 69.8652C602.518 70.6207 603.677 71.7877 604.422 73.2131C604.622 72.9873 604.867 72.8066 605.143 72.6829C605.418 72.5592 605.716 72.4954 606.018 72.4957C605.298 70.8646 604.137 69.466 602.666 68.457C602.032 68.7855 601.492 69.2702 601.097 69.8652Z" fill="#F29339"/>
<path d="M582 174.339C583.972 174.983 586.061 175.186 588.12 174.934C590.18 174.681 592.158 173.979 593.915 172.878C593.739 165.99 594.373 159.106 595.804 152.366C593.599 152.808 591.317 152.671 589.181 151.967C587.943 159.747 585.521 167.291 582 174.339Z" fill="#EB2F2F"/>
<path d="M162.908 11.012C163.751 12.0869 164.358 13.3272 164.69 14.6521C166.628 12.7549 168.821 11.1363 171.206 9.8429C171.239 8.48123 170.765 7.15571 169.876 6.12305C167.364 7.46465 165.024 9.10636 162.908 11.012Z" fill="#F29339"/>
<path d="M81.2013 42.9225C82.085 40.8482 83.7047 39.1733 85.7495 38.2195C82.9185 36.1005 79.7547 34.4663 76.3872 33.3838C75.1554 35.1046 74.3115 37.0717 73.9137 39.1495C76.5936 39.8499 79.0833 41.1389 81.2013 42.9225Z" fill="#EB2F2F"/>
<path d="M597.826 10.8258C598.358 12.8451 599.634 13.8813 601.762 15.5287C605.833 10.3115 610.816 5.87353 616.47 2.42956C614.928 1.16224 613.859 -0.588705 613.438 -2.53906C607.331 0.740052 602.005 5.29907 597.826 10.8258Z" fill="#008DF0"/>
<path d="M277.622 32.4809C276.362 32.4337 275.123 32.818 274.111 33.5703C274.981 34.5643 275.504 35.8139 275.601 37.1307C276.793 37.2098 277.989 37.0379 279.111 36.6259C278.355 35.3516 277.85 33.9447 277.622 32.4809Z" fill="#FF41AA"/>
<path d="M531.678 18.6382C530.025 19.4529 528.125 19.6142 526.359 19.0899C526.957 21.9017 528.018 24.5952 529.497 27.0609C531.186 26.667 532.766 25.9049 534.125 24.8291C532.852 22.9765 532.015 20.8599 531.678 18.6382Z" fill="#008DF0"/>
<path d="M486.729 106.346C486.345 106.798 486.091 107.345 485.993 107.93C485.895 108.514 485.956 109.114 486.17 109.667C487.173 110.227 488.335 110.433 489.469 110.252C490.005 108.891 490.93 107.717 492.128 106.877C490.311 107.066 488.474 106.885 486.729 106.346Z" fill="#FF41AA"/>
<path d="M632.587 72.9741C629.662 72.9741 627.8 74.3292 624.848 76.6408C630.459 83.9635 634.686 92.2473 637.322 101.085C639.573 99.4541 642.31 98.6302 645.088 98.7472C642.813 89.3626 638.55 80.5741 632.587 72.9741Z" fill="#008DF0"/>
<path d="M472.26 80.7061C471.125 80.2679 470.097 79.59 469.248 78.7187C468.399 77.8475 467.748 76.8034 467.34 75.6577C462.228 79.7949 457.748 84.6554 454.041 90.0854C455.415 92.688 457.475 94.8656 459.999 96.3825C462.655 90.183 466.881 84.7806 472.26 80.7061Z" fill="#008DF0"/>
<path d="M323.209 146.307C324.778 149.602 324.991 153.561 322.172 162.01C326.163 162.644 330.252 161.963 333.821 160.071C335.181 154.518 335.099 148.711 333.582 143.199C330.554 145.334 326.913 146.425 323.209 146.307Z" fill="#EB2F2F"/>
<path d="M711.049 -9.58008C709.847 -9.12868 708.76 -8.4186 707.863 -7.50022C706.967 -6.58185 706.284 -5.47767 705.863 -4.26603C708.606 -1.0171 710.946 2.55154 712.831 6.36206C713.706 5.29476 714.855 4.48626 716.156 4.02387C713.76 -0.22006 712.038 -4.80914 711.049 -9.58008Z" fill="#FF41AA"/>
<path d="M50.2679 -12.2368C46.9774 -8.35741 42.956 -5.16162 38.4321 -2.83097C39.5265 -0.386379 41.3958 1.63045 43.7516 2.90821C48.44 0.625906 52.7466 -2.36768 56.5182 -5.96624C52.6084 -7.48074 50.8264 -8.91554 50.2679 -12.2368Z" fill="#008DF0"/>
<path d="M389.622 74.7538C387.009 69.479 383.489 64.7036 379.223 60.645C376.74 63.2783 375.005 66.525 374.196 70.0509C377.246 72.1209 379.541 75.1229 380.739 78.6065C381.844 77.3499 383.213 76.3529 384.749 75.6868C386.285 75.0208 387.949 74.7021 389.622 74.7538Z" fill="#FF41AA"/>
<path d="M108.25 129.515C108.309 127.995 107.818 126.505 106.867 125.317C102.762 127.712 98.2559 129.341 93.5681 130.127C94.2699 131.387 94.5231 132.849 94.2862 134.272C99.2254 133.692 103.985 132.071 108.25 129.515Z" fill="#00D339"/>
</g>
</svg>
