<svg width="257" height="35" viewBox="0 0 257 35" fill="none" xmlns="http://www.w3.org/2000/svg">
<path d="M29.8051 29.201C28.7148 28.1141 27.32 27.3845 25.8057 27.1091C24.2914 26.8336 22.7292 27.0253 21.3263 27.6587C19.4558 28.4879 17.3869 28.7627 15.365 28.4508V11.57C14.0416 11.57 12.7725 12.096 11.8368 13.0323C10.901 13.9685 10.3753 15.2384 10.3753 16.5624V26.2392C8.66159 24.8671 7.41596 22.9965 6.81051 20.8857C6.20506 18.7749 6.26966 16.5281 6.99538 14.4556C7.7211 12.3831 9.07213 10.5872 10.8618 9.316C12.6516 8.04482 14.7916 7.36107 16.9864 7.35921C18.4733 7.35587 19.9438 7.66918 21.3002 8.27831C22.7034 8.91026 24.2652 9.10116 25.7792 8.82577C27.2931 8.55038 28.6879 7.82168 29.779 6.73602L29.0031 5.95966C26.0523 2.99828 22.1126 1.23145 17.9397 0.998212C13.7669 0.764976 9.65498 2.08176 6.39297 4.69589C4.40261 6.28203 2.79451 8.29601 1.68787 10.5886C0.58123 12.8811 0.00441568 15.3934 0.000178127 17.9394C-0.0100978 20.1779 0.424327 22.3961 1.27821 24.4652C2.1321 26.5343 3.38842 28.413 4.97419 29.9922C5.42145 30.4375 5.89153 30.8594 6.38253 31.2559C9.64773 33.8618 13.7575 35.1737 17.9277 34.9415C22.0979 34.7092 26.0367 32.9489 28.9926 29.9965L29.8051 29.201Z" fill="#652F8F"/>
<path d="M16.8708 20.6702H19.1629C20.4843 20.67 21.7517 20.1453 22.6869 19.2114C23.6222 18.2774 24.149 17.0104 24.1517 15.6882H21.8605C21.2059 15.6876 20.5576 15.8159 19.9526 16.0659C19.3476 16.3159 18.7977 16.6827 18.3344 17.1453C17.871 17.6079 17.5033 18.1573 17.2522 18.7621C17.0011 19.3669 16.8715 20.0153 16.8708 20.6702Z" fill="#652F8F"/>
<path d="M41.2789 0.967773H40.2516V17.966V34.9642H41.2789V0.967773Z" fill="#652F8F"/>
<path d="M52.0041 17.7678C51.8841 10.2078 58.4041 3.92777 66.0841 4.08777C71.0841 4.08777 75.3641 6.52777 77.7241 10.6478L73.6441 13.5278C71.7641 10.5678 69.2441 9.08777 66.0841 9.08777C61.1641 9.08777 57.5641 12.7678 57.5641 17.8078C57.5641 22.8478 61.1641 26.4478 66.0841 26.4478C69.2441 26.4478 71.7641 24.9678 73.6441 22.0078L77.7241 24.8878C75.4441 29.0078 71.1241 31.4478 66.0441 31.4478C58.3241 31.6078 51.8441 25.3278 52.0041 17.7678ZM81.1131 30.9678V4.56777H98.4731V9.44777H86.5131V16.0478H96.3131V20.9278H86.5131V30.9678H81.1131ZM114.087 30.9678V9.44777H105.647V4.56777H127.967V9.44777H119.487V30.9678H114.087ZM140.368 11.1678V15.9278H138.928C135.688 15.9278 133.608 17.6878 133.608 21.0878V30.9678H128.208V11.1678H133.168V13.5278C134.488 11.8878 136.408 10.9278 138.608 10.9278C139.288 10.9278 139.848 11.0078 140.368 11.1678ZM158.725 19.2078V30.9678H153.765V29.0478C152.325 30.5278 150.245 31.4478 147.725 31.4478C143.525 31.4478 140.885 29.0078 140.885 25.5278C140.885 21.9678 143.765 19.7678 148.365 19.7678H153.325V18.8878C153.325 16.6878 152.045 15.4078 149.645 15.4078C147.605 15.4078 146.165 16.2478 144.405 18.1278L141.605 14.8078C143.885 12.0878 146.765 10.7278 150.245 10.7278C155.405 10.7278 158.725 13.7278 158.725 19.2078ZM153.325 23.5678V23.3278H149.085C147.325 23.3278 146.325 24.0078 146.325 25.3278C146.325 26.6478 147.445 27.4878 149.165 27.4878C151.525 27.4878 153.325 25.8478 153.325 23.5678ZM180.922 18.6878V30.9678H175.562V19.4078C175.562 17.1278 174.082 15.5678 171.882 15.5678C169.682 15.5678 168.122 17.1278 168.122 19.4078V30.9678H162.722V11.1678H167.682V12.9678C169.082 11.5678 171.122 10.7278 173.482 10.7278C178.082 10.7278 180.922 13.8878 180.922 18.6878ZM183.12 27.6078L185.84 24.3278C187.56 26.1278 189.44 27.0078 191.4 27.0078C192.84 27.0078 193.92 26.4478 193.92 25.3678C193.92 24.5278 193.36 24.2078 191.88 23.5678L189.76 22.6878C186.12 21.2078 184.36 19.5678 184.36 16.6478C184.36 12.9278 187.32 10.7278 191.64 10.7278C194.6 10.7278 196.96 11.7278 198.76 13.6878L196.04 17.0078C194.72 15.7678 193.24 15.1278 191.6 15.1278C190.28 15.1278 189.48 15.6078 189.48 16.5278C189.48 17.2878 190 17.6478 191.56 18.2878L193.48 19.0878C197.32 20.6478 199.04 22.2078 199.04 25.1278C199.04 27.0878 198.32 28.6478 196.84 29.7678C195.4 30.8878 193.56 31.4478 191.32 31.4478C187.84 31.4478 184.92 30.0078 183.12 27.6078ZM218.523 19.2078V30.9678H213.563V29.0478C212.123 30.5278 210.043 31.4478 207.523 31.4478C203.323 31.4478 200.683 29.0078 200.683 25.5278C200.683 21.9678 203.563 19.7678 208.163 19.7678H213.123V18.8878C213.123 16.6878 211.843 15.4078 209.443 15.4078C207.403 15.4078 205.963 16.2478 204.203 18.1278L201.403 14.8078C203.683 12.0878 206.563 10.7278 210.043 10.7278C215.203 10.7278 218.523 13.7278 218.523 19.2078ZM213.123 23.5678V23.3278H208.883C207.123 23.3278 206.123 24.0078 206.123 25.3278C206.123 26.6478 207.243 27.4878 208.963 27.4878C211.323 27.4878 213.123 25.8478 213.123 23.5678ZM221.4 21.0478C221.4 15.2478 226.12 10.7278 232 10.7278C235.88 10.7278 238.88 12.5678 240.6 15.6078L236.84 18.5278C235.6 16.7278 234.16 15.6478 232.08 15.6478C229.04 15.6478 226.88 17.9678 226.88 21.0478C226.88 24.2078 229.04 26.4878 232.08 26.4878C234.12 26.4878 235.56 25.4478 236.84 23.6478L240.6 26.5278C238.88 29.5678 235.84 31.4478 232 31.4478C226.2 31.5678 221.32 26.7678 221.4 21.0478ZM256.111 26.4478V30.9678C254.831 31.2878 253.591 31.4478 252.391 31.4478C247.391 31.4478 244.471 28.9678 244.471 24.0078V15.7278H241.351V11.1678H244.471V6.16777H249.871V11.1678H255.471V15.7278H249.871V23.5278C249.871 25.7678 250.991 26.6078 253.551 26.6078C253.871 26.6078 254.711 26.5678 256.111 26.4478Z" fill="#652F8F"/>
</svg>
