<svg width="100" height="99" viewBox="0 0 100 99" fill="none" xmlns="http://www.w3.org/2000/svg">
<rect x="0.875" width="98.25" height="98.25" rx="14.4485" fill="black"/>
<path d="M42.3475 54.5969V48.3886C42.3475 46.8082 42.3287 45.2279 42.2911 43.6476C42.2911 42.0673 42.2535 40.7128 42.1782 39.584C42.1406 38.4552 42.0653 37.7967 41.9525 37.6086L37.9453 36.5362L38.1146 33.3192H50.9828L51.1521 36.5362L47.4835 37.6086C47.4083 37.7967 47.333 38.4552 47.2578 39.584C47.1825 40.6751 47.1261 42.0109 47.0885 43.5912C47.0885 45.1715 47.0885 46.7706 47.0885 48.3886V57.4753C47.0885 59.5448 47.0697 61.2944 47.032 62.7242C47.032 64.1164 47.032 65.4709 47.032 66.7879H43.0248L19.0944 41.5029H23.271V50.3075C23.271 52.1888 23.271 53.9949 23.271 55.7257C23.3086 57.4189 23.365 58.8487 23.4403 60.0151C23.5155 61.1815 23.6096 61.8964 23.7225 62.1598L27.7297 63.2322L27.5604 66.4492H14.41L14.2406 63.2322L17.9092 62.1598C17.9845 61.8964 18.0409 61.1439 18.0785 59.9022C18.1538 58.6606 18.2102 57.1743 18.2478 55.4435C18.2855 53.7127 18.3043 52.0007 18.3043 50.3075V44.212C18.3043 43.7605 18.2667 43.0832 18.1914 42.1802C18.1538 41.2395 18.0973 40.3177 18.0221 39.4147C17.9845 38.5116 17.9468 37.9096 17.9092 37.6086L14.2406 36.5362L14.41 33.3192H24.1176L45.4517 54.5969H42.3475ZM58.4328 62.1598C58.5457 61.9717 58.6398 61.0122 58.715 59.2814C58.7903 57.5506 58.8279 55.5376 58.8279 53.2424V46.4696C58.8279 44.2497 58.7903 42.2743 58.715 40.5435C58.6398 38.8126 58.5457 37.8532 58.4328 37.665L54.7642 36.4798L54.9336 33.3192H72.6556C76.7945 33.3192 79.8422 33.9777 81.7988 35.2946C83.793 36.5739 84.7901 38.5681 84.7901 41.2772C84.7901 43.3466 83.8306 45.0774 81.9117 46.4696C79.9927 47.8242 77.453 48.5955 74.2923 48.7836L75.2518 48.2757C78.8263 48.4638 81.5919 49.2916 83.5484 50.759C85.505 52.2264 86.4833 54.183 86.4833 56.6287C86.4833 59.7893 85.1664 62.2163 82.5325 63.9094C79.9363 65.6026 76.2113 66.4492 71.3575 66.4492H54.9336L54.7642 63.2322L58.4328 62.1598ZM68.1969 56.4594C68.1969 57.8516 68.2157 59.0368 68.2533 60.0151C68.2909 60.9934 68.3286 61.7271 68.3662 62.2163C68.7048 62.3668 69.1375 62.4984 69.6643 62.6113C70.2287 62.6866 70.7931 62.7242 71.3575 62.7242C72.9002 62.7242 74.123 62.2539 75.026 61.3132C75.9291 60.3726 76.3806 59.1309 76.3806 57.5882C76.3806 55.5188 75.8726 54.0137 74.8567 53.073C73.8408 52.1324 72.1476 51.6621 69.7772 51.6621C69.4762 51.6621 69.1187 51.6809 68.7048 51.7185C68.2909 51.7185 67.8206 51.7561 67.2938 51.8314V47.4855C67.8582 47.5232 68.2909 47.5608 68.5919 47.5984C68.9306 47.5984 69.2316 47.5984 69.495 47.5984C71.301 47.5984 72.618 47.1281 73.4457 46.1874C74.2735 45.2468 74.6874 43.911 74.6874 42.1802C74.6874 40.5999 74.2735 39.3206 73.4457 38.3423C72.618 37.364 71.2446 36.8749 69.3257 36.8749H68.3097C68.2721 37.2511 68.2345 38.0413 68.1969 39.2453C68.1969 40.4118 68.1969 41.8228 68.1969 43.4783V56.4594Z" fill="white"/>
</svg>
