<svg width="386" height="76" viewBox="0 0 386 76" fill="none" xmlns="http://www.w3.org/2000/svg">
<g clip-path="url(#clip0_3246_3307)">
<rect width="386" height="89" rx="10" fill="white"/>
<g opacity="0.02">
<rect y="6.08887" width="9.1361" height="9.1361" rx="1.14201" fill="#207FF1"/>
<rect x="17.1301" y="6.08887" width="9.1361" height="9.1361" rx="1.14201" fill="#207FF1"/>
<rect x="34.2603" y="6.08887" width="9.1361" height="9.1361" rx="1.14201" fill="#207FF1"/>
<rect x="51.3906" y="6.08887" width="9.1361" height="9.1361" rx="1.14201" fill="white"/>
<rect x="68.5208" y="6.08887" width="9.1361" height="9.1361" rx="1.14201" fill="#207FF1"/>
<rect x="85.6509" y="6.08887" width="9.1361" height="9.1361" rx="1.14201" fill="#207FF1"/>
<rect x="102.781" y="6.08887" width="9.1361" height="9.1361" rx="1.14201" fill="#207FF1"/>
<rect x="119.911" y="6.08887" width="9.1361" height="9.1361" rx="1.14201" fill="#207FF1"/>
<rect x="137.042" y="6.08887" width="9.1361" height="9.1361" rx="1.14201" fill="#207FF1"/>
<rect x="154.172" y="6.08887" width="9.1361" height="9.1361" rx="1.14201" fill="#207FF1"/>
<rect x="171.302" y="6.08887" width="9.1361" height="9.1361" rx="1.14201" fill="white"/>
<rect x="188.432" y="6.08887" width="9.1361" height="9.1361" rx="1.14201" fill="#207FF1"/>
<rect x="205.562" y="6.08887" width="9.1361" height="9.1361" rx="1.14201" fill="#207FF1"/>
<rect x="222.692" y="6.08887" width="9.1361" height="9.1361" rx="1.14201" fill="#207FF1"/>
<rect x="239.823" y="6.08887" width="9.1361" height="9.1361" rx="1.14201" fill="#207FF1"/>
<rect x="256.953" y="6.08887" width="9.1361" height="9.1361" rx="1.14201" fill="#207FF1"/>
<rect x="274.083" y="6.08887" width="9.1361" height="9.1361" rx="1.14201" fill="#207FF1"/>
<rect x="291.213" y="6.08887" width="9.1361" height="9.1361" rx="1.14201" fill="#207FF1"/>
<rect x="308.343" y="6.08887" width="9.1361" height="9.1361" rx="1.14201" fill="#207FF1"/>
<rect x="325.474" y="6.08887" width="9.1361" height="9.1361" rx="1.14201" fill="#207FF1"/>
<rect x="342.604" y="6.08887" width="9.1361" height="9.1361" rx="1.14201" fill="#207FF1"/>
<rect x="359.734" y="6.08887" width="9.1361" height="9.1361" rx="1.14201" fill="white"/>
<rect x="376.864" y="6.08887" width="9.1361" height="9.1361" rx="1.14201" fill="#207FF1"/>
<rect y="23.2188" width="9.1361" height="9.1361" rx="1.14201" fill="white"/>
<rect x="17.1301" y="23.2188" width="9.1361" height="9.1361" rx="1.14201" fill="#207FF1"/>
<rect x="34.2603" y="23.2188" width="9.1361" height="9.1361" rx="1.14201" fill="#207FF1"/>
<rect x="51.3906" y="23.2188" width="9.1361" height="9.1361" rx="1.14201" fill="#207FF1"/>
<rect x="68.5208" y="23.2188" width="9.1361" height="9.1361" rx="1.14201" fill="#207FF1"/>
<rect x="85.6509" y="23.2188" width="9.1361" height="9.1361" rx="1.14201" fill="#207FF1"/>
<rect x="102.781" y="23.2188" width="9.1361" height="9.1361" rx="1.14201" fill="#207FF1"/>
<rect x="119.911" y="23.2188" width="9.1361" height="9.1361" rx="1.14201" fill="#207FF1"/>
<rect x="137.042" y="23.2188" width="9.1361" height="9.1361" rx="1.14201" fill="#207FF1"/>
<rect x="154.172" y="23.2188" width="9.1361" height="9.1361" rx="1.14201" fill="#207FF1"/>
<rect x="171.302" y="23.2188" width="9.1361" height="9.1361" rx="1.14201" fill="#207FF1"/>
<rect x="188.432" y="23.2188" width="9.1361" height="9.1361" rx="1.14201" fill="#207FF1"/>
<rect x="205.562" y="23.2188" width="9.1361" height="9.1361" rx="1.14201" fill="#207FF1"/>
<rect x="222.692" y="23.2188" width="9.1361" height="9.1361" rx="1.14201" fill="#207FF1"/>
<rect x="239.823" y="23.2188" width="9.1361" height="9.1361" rx="1.14201" fill="white"/>
<rect x="256.953" y="23.2188" width="9.1361" height="9.1361" rx="1.14201" fill="#207FF1"/>
<rect x="274.083" y="23.2188" width="9.1361" height="9.1361" rx="1.14201" fill="#207FF1"/>
<rect x="291.213" y="23.2188" width="9.1361" height="9.1361" rx="1.14201" fill="#207FF1"/>
<rect x="308.343" y="23.2188" width="9.1361" height="9.1361" rx="1.14201" fill="#207FF1"/>
<rect x="325.474" y="23.2188" width="9.1361" height="9.1361" rx="1.14201" fill="white"/>
<rect x="342.604" y="23.2188" width="9.1361" height="9.1361" rx="1.14201" fill="#207FF1"/>
<rect x="359.734" y="23.2188" width="9.1361" height="9.1361" rx="1.14201" fill="#207FF1"/>
<rect x="376.864" y="23.2188" width="9.1361" height="9.1361" rx="1.14201" fill="#207FF1"/>
<rect y="40.3496" width="9.1361" height="9.1361" rx="1.14201" fill="#207FF1"/>
<rect x="17.1301" y="40.3496" width="9.1361" height="9.1361" rx="1.14201" fill="#207FF1"/>
<rect x="34.2603" y="40.3496" width="9.1361" height="9.1361" rx="1.14201" fill="#207FF1"/>
<rect x="51.3906" y="40.3496" width="9.1361" height="9.1361" rx="1.14201" fill="#207FF1"/>
<rect x="68.5208" y="40.3496" width="9.1361" height="9.1361" rx="1.14201" fill="white"/>
<rect x="85.6509" y="40.3496" width="9.1361" height="9.1361" rx="1.14201" fill="#207FF1"/>
<rect x="102.781" y="40.3496" width="9.1361" height="9.1361" rx="1.14201" fill="#207FF1"/>
<rect x="119.911" y="40.3496" width="9.1361" height="9.1361" rx="1.14201" fill="white"/>
<rect x="137.042" y="40.3496" width="9.1361" height="9.1361" rx="1.14201" fill="#207FF1"/>
<rect x="154.172" y="40.3496" width="9.1361" height="9.1361" rx="1.14201" fill="#207FF1"/>
<rect x="171.302" y="40.3496" width="9.1361" height="9.1361" rx="1.14201" fill="#207FF1"/>
<rect x="188.432" y="40.3496" width="9.1361" height="9.1361" rx="1.14201" fill="#207FF1"/>
<rect x="205.562" y="40.3496" width="9.1361" height="9.1361" rx="1.14201" fill="white"/>
<rect x="222.692" y="40.3496" width="9.1361" height="9.1361" rx="1.14201" fill="#207FF1"/>
<rect x="239.823" y="40.3496" width="9.1361" height="9.1361" rx="1.14201" fill="#207FF1"/>
<rect x="256.953" y="40.3496" width="9.1361" height="9.1361" rx="1.14201" fill="#207FF1"/>
<rect x="274.083" y="40.3496" width="9.1361" height="9.1361" rx="1.14201" fill="#207FF1"/>
<rect x="291.213" y="40.3496" width="9.1361" height="9.1361" rx="1.14201" fill="#207FF1"/>
<rect x="308.343" y="40.3496" width="9.1361" height="9.1361" rx="1.14201" fill="#207FF1"/>
<rect x="325.474" y="40.3496" width="9.1361" height="9.1361" rx="1.14201" fill="#207FF1"/>
<rect x="342.604" y="40.3496" width="9.1361" height="9.1361" rx="1.14201" fill="#207FF1"/>
<rect x="359.734" y="40.3496" width="9.1361" height="9.1361" rx="1.14201" fill="#207FF1"/>
<rect x="376.864" y="40.3496" width="9.1361" height="9.1361" rx="1.14201" fill="white"/>
<rect y="57.4795" width="9.1361" height="9.1361" rx="1.14201" fill="#207FF1"/>
<rect x="17.1301" y="57.4795" width="9.1361" height="9.1361" rx="1.14201" fill="#207FF1"/>
<rect x="34.2603" y="57.4795" width="9.1361" height="9.1361" rx="1.14201" fill="#207FF1"/>
<rect x="51.3906" y="57.4795" width="9.1361" height="9.1361" rx="1.14201" fill="#207FF1"/>
<rect x="68.5208" y="57.4795" width="9.1361" height="9.1361" rx="1.14201" fill="#207FF1"/>
<rect x="85.6509" y="57.4795" width="9.1361" height="9.1361" rx="1.14201" fill="#207FF1"/>
<rect x="102.781" y="57.4795" width="9.1361" height="9.1361" rx="1.14201" fill="#207FF1"/>
<rect x="119.911" y="57.4795" width="9.1361" height="9.1361" rx="1.14201" fill="#207FF1"/>
<rect x="137.042" y="57.4795" width="9.1361" height="9.1361" rx="1.14201" fill="#207FF1"/>
<rect x="154.172" y="57.4795" width="9.1361" height="9.1361" rx="1.14201" fill="#207FF1"/>
<rect x="171.302" y="57.4795" width="9.1361" height="9.1361" rx="1.14201" fill="white"/>
<rect x="188.432" y="57.4795" width="9.1361" height="9.1361" rx="1.14201" fill="#207FF1"/>
<rect x="205.562" y="57.4795" width="9.1361" height="9.1361" rx="1.14201" fill="#207FF1"/>
<rect x="222.692" y="57.4795" width="9.1361" height="9.1361" rx="1.14201" fill="#207FF1"/>
<rect x="239.823" y="57.4795" width="9.1361" height="9.1361" rx="1.14201" fill="#207FF1"/>
<rect x="256.953" y="57.4795" width="9.1361" height="9.1361" rx="1.14201" fill="white"/>
<rect x="274.083" y="57.4795" width="9.1361" height="9.1361" rx="1.14201" fill="#207FF1"/>
<rect x="291.213" y="57.4795" width="9.1361" height="9.1361" rx="1.14201" fill="#207FF1"/>
<rect x="308.343" y="57.4795" width="9.1361" height="9.1361" rx="1.14201" fill="#207FF1"/>
<rect x="325.474" y="57.4795" width="9.1361" height="9.1361" rx="1.14201" fill="#207FF1"/>
<rect x="342.604" y="57.4795" width="9.1361" height="9.1361" rx="1.14201" fill="white"/>
<rect x="359.734" y="57.4795" width="9.1361" height="9.1361" rx="1.14201" fill="#207FF1"/>
<rect x="376.864" y="57.4795" width="9.1361" height="9.1361" rx="1.14201" fill="#207FF1"/>
<rect y="74.6094" width="9.1361" height="9.1361" rx="1.14201" fill="#207FF1"/>
<rect x="17.1301" y="74.6094" width="9.1361" height="9.1361" rx="1.14201" fill="#207FF1"/>
<rect x="34.2603" y="74.6094" width="9.1361" height="9.1361" rx="1.14201" fill="#207FF1"/>
<rect x="51.3906" y="74.6094" width="9.1361" height="9.1361" rx="1.14201" fill="#207FF1"/>
<rect x="68.5208" y="74.6094" width="9.1361" height="9.1361" rx="1.14201" fill="#207FF1"/>
<rect x="85.6509" y="74.6094" width="9.1361" height="9.1361" rx="1.14201" fill="#207FF1"/>
<rect x="102.781" y="74.6094" width="9.1361" height="9.1361" rx="1.14201" fill="white"/>
<rect x="119.911" y="74.6094" width="9.1361" height="9.1361" rx="1.14201" fill="#207FF1"/>
<rect x="137.042" y="74.6094" width="9.1361" height="9.1361" rx="1.14201" fill="#207FF1"/>
<rect x="154.172" y="74.6094" width="9.1361" height="9.1361" rx="1.14201" fill="#207FF1"/>
<rect x="171.302" y="74.6094" width="9.1361" height="9.1361" rx="1.14201" fill="#207FF1"/>
<rect x="188.432" y="74.6094" width="9.1361" height="9.1361" rx="1.14201" fill="#207FF1"/>
<rect x="205.562" y="74.6094" width="9.1361" height="9.1361" rx="1.14201" fill="#207FF1"/>
<rect x="222.692" y="74.6094" width="9.1361" height="9.1361" rx="1.14201" fill="white"/>
<rect x="239.823" y="74.6094" width="9.1361" height="9.1361" rx="1.14201" fill="#207FF1"/>
<rect x="256.953" y="74.6094" width="9.1361" height="9.1361" rx="1.14201" fill="#207FF1"/>
<rect x="274.083" y="74.6094" width="9.1361" height="9.1361" rx="1.14201" fill="#207FF1"/>
<rect x="291.213" y="74.6094" width="9.1361" height="9.1361" rx="1.14201" fill="#207FF1"/>
<rect x="308.343" y="74.6094" width="9.1361" height="9.1361" rx="1.14201" fill="white"/>
<rect x="325.474" y="74.6094" width="9.1361" height="9.1361" rx="1.14201" fill="#207FF1"/>
<rect x="342.604" y="74.6094" width="9.1361" height="9.1361" rx="1.14201" fill="#207FF1"/>
<rect x="359.734" y="74.6094" width="9.1361" height="9.1361" rx="1.14201" fill="#207FF1"/>
<rect x="376.864" y="74.6094" width="9.1361" height="9.1361" rx="1.14201" fill="#207FF1"/>
</g>
<path d="M25.78 27.18C25.78 27.5533 25.69 27.9033 25.51 28.23C25.3367 28.5567 25.06 28.82 24.68 29.02C24.3067 29.22 23.8333 29.32 23.26 29.32H22.09V32H20.69V25.02H23.26C23.8 25.02 24.26 25.1133 24.64 25.3C25.02 25.4867 25.3033 25.7433 25.49 26.07C25.6833 26.3967 25.78 26.7667 25.78 27.18ZM23.2 28.19C23.5867 28.19 23.8733 28.1033 24.06 27.93C24.2467 27.75 24.34 27.5 24.34 27.18C24.34 26.5 23.96 26.16 23.2 26.16H22.09V28.19H23.2ZM26.414 29.21C26.414 28.65 26.524 28.1533 26.744 27.72C26.9707 27.2867 27.274 26.9533 27.654 26.72C28.0407 26.4867 28.4707 26.37 28.944 26.37C29.3573 26.37 29.7173 26.4533 30.024 26.62C30.3373 26.7867 30.5873 26.9967 30.774 27.25V26.46H32.184V32H30.774V31.19C30.594 31.45 30.344 31.6667 30.024 31.84C29.7107 32.0067 29.3473 32.09 28.934 32.09C28.4673 32.09 28.0407 31.97 27.654 31.73C27.274 31.49 26.9707 31.1533 26.744 30.72C26.524 30.28 26.414 29.7767 26.414 29.21ZM30.774 29.23C30.774 28.89 30.7073 28.6 30.574 28.36C30.4407 28.1133 30.2607 27.9267 30.034 27.8C29.8073 27.6667 29.564 27.6 29.304 27.6C29.044 27.6 28.804 27.6633 28.584 27.79C28.364 27.9167 28.184 28.1033 28.044 28.35C27.9107 28.59 27.844 28.8767 27.844 29.21C27.844 29.5433 27.9107 29.8367 28.044 30.09C28.184 30.3367 28.364 30.5267 28.584 30.66C28.8107 30.7933 29.0507 30.86 29.304 30.86C29.564 30.86 29.8073 30.7967 30.034 30.67C30.2607 30.5367 30.4407 30.35 30.574 30.11C30.7073 29.8633 30.774 29.57 30.774 29.23ZM38.8513 26.46L35.4213 34.62H33.9313L35.1313 31.86L32.9113 26.46H34.4813L35.9113 30.33L37.3613 26.46H38.8513ZM46.486 26.38C47.166 26.38 47.7127 26.59 48.126 27.01C48.546 27.4233 48.756 28.0033 48.756 28.75V32H47.356V28.94C47.356 28.5067 47.246 28.1767 47.026 27.95C46.806 27.7167 46.506 27.6 46.126 27.6C45.746 27.6 45.4427 27.7167 45.216 27.95C44.996 28.1767 44.886 28.5067 44.886 28.94V32H43.486V28.94C43.486 28.5067 43.376 28.1767 43.156 27.95C42.936 27.7167 42.636 27.6 42.256 27.6C41.8693 27.6 41.5627 27.7167 41.336 27.95C41.116 28.1767 41.006 28.5067 41.006 28.94V32H39.606V26.46H41.006V27.13C41.186 26.8967 41.416 26.7133 41.696 26.58C41.9827 26.4467 42.296 26.38 42.636 26.38C43.0693 26.38 43.456 26.4733 43.796 26.66C44.136 26.84 44.3993 27.1 44.586 27.44C44.766 27.12 45.026 26.8633 45.366 26.67C45.7127 26.4767 46.086 26.38 46.486 26.38ZM55.2345 29.11C55.2345 29.31 55.2212 29.49 55.1945 29.65H51.1445C51.1779 30.05 51.3179 30.3633 51.5645 30.59C51.8112 30.8167 52.1145 30.93 52.4745 30.93C52.9945 30.93 53.3645 30.7067 53.5845 30.26H55.0945C54.9345 30.7933 54.6279 31.2333 54.1745 31.58C53.7212 31.92 53.1645 32.09 52.5045 32.09C51.9712 32.09 51.4912 31.9733 51.0645 31.74C50.6445 31.5 50.3145 31.1633 50.0745 30.73C49.8412 30.2967 49.7245 29.7967 49.7245 29.23C49.7245 28.6567 49.8412 28.1533 50.0745 27.72C50.3079 27.2867 50.6345 26.9533 51.0545 26.72C51.4745 26.4867 51.9579 26.37 52.5045 26.37C53.0312 26.37 53.5012 26.4833 53.9145 26.71C54.3345 26.9367 54.6579 27.26 54.8845 27.68C55.1179 28.0933 55.2345 28.57 55.2345 29.11ZM53.7845 28.71C53.7779 28.35 53.6479 28.0633 53.3945 27.85C53.1412 27.63 52.8312 27.52 52.4645 27.52C52.1179 27.52 51.8245 27.6267 51.5845 27.84C51.3512 28.0467 51.2079 28.3367 51.1545 28.71H53.7845ZM59.3264 26.38C59.9864 26.38 60.5197 26.59 60.9264 27.01C61.3331 27.4233 61.5364 28.0033 61.5364 28.75V32H60.1364V28.94C60.1364 28.5 60.0264 28.1633 59.8064 27.93C59.5864 27.69 59.2864 27.57 58.9064 27.57C58.5197 27.57 58.2131 27.69 57.9864 27.93C57.7664 28.1633 57.6564 28.5 57.6564 28.94V32H56.2564V26.46H57.6564V27.15C57.8431 26.91 58.0797 26.7233 58.3664 26.59C58.6597 26.45 58.9797 26.38 59.3264 26.38ZM64.4977 27.61V30.29C64.4977 30.4767 64.5411 30.6133 64.6277 30.7C64.7211 30.78 64.8744 30.82 65.0877 30.82H65.7377V32H64.8577C63.6777 32 63.0877 31.4267 63.0877 30.28V27.61H62.4277V26.46H63.0877V25.09H64.4977V26.46H65.7377V27.61H64.4977ZM70.5275 24.6V32H69.1275V24.6H70.5275ZM72.6207 25.8C72.374 25.8 72.1674 25.7233 72.0007 25.57C71.8407 25.41 71.7607 25.2133 71.7607 24.98C71.7607 24.7467 71.8407 24.5533 72.0007 24.4C72.1674 24.24 72.374 24.16 72.6207 24.16C72.8674 24.16 73.0707 24.24 73.2307 24.4C73.3974 24.5533 73.4807 24.7467 73.4807 24.98C73.4807 25.2133 73.3974 25.41 73.2307 25.57C73.0707 25.7233 72.8674 25.8 72.6207 25.8ZM73.3107 26.46V32H71.9107V26.46H73.3107ZM77.7639 26.38C78.4239 26.38 78.9572 26.59 79.3639 27.01C79.7706 27.4233 79.9739 28.0033 79.9739 28.75V32H78.5739V28.94C78.5739 28.5 78.4639 28.1633 78.2439 27.93C78.0239 27.69 77.7239 27.57 77.3439 27.57C76.9572 27.57 76.6506 27.69 76.4239 27.93C76.2039 28.1633 76.0939 28.5 76.0939 28.94V32H74.6939V26.46H76.0939V27.15C76.2806 26.91 76.5172 26.7233 76.8039 26.59C77.0972 26.45 77.4172 26.38 77.7639 26.38ZM84.5852 32L82.7052 29.64V32H81.3052V24.6H82.7052V28.81L84.5652 26.46H86.3852L83.9452 29.24L86.4052 32H84.5852ZM89.2651 32.09C88.8117 32.09 88.4051 32.01 88.0451 31.85C87.6851 31.6833 87.3984 31.46 87.1851 31.18C86.9784 30.9 86.8651 30.59 86.8451 30.25H88.2551C88.2817 30.4633 88.3851 30.64 88.5651 30.78C88.7517 30.92 88.9817 30.99 89.2551 30.99C89.5217 30.99 89.7284 30.9367 89.8751 30.83C90.0284 30.7233 90.1051 30.5867 90.1051 30.42C90.1051 30.24 90.0117 30.1067 89.8251 30.02C89.6451 29.9267 89.3551 29.8267 88.9551 29.72C88.5417 29.62 88.2017 29.5167 87.9351 29.41C87.6751 29.3033 87.4484 29.14 87.2551 28.92C87.0684 28.7 86.9751 28.4033 86.9751 28.03C86.9751 27.7233 87.0617 27.4433 87.2351 27.19C87.4151 26.9367 87.6684 26.7367 87.9951 26.59C88.3284 26.4433 88.7184 26.37 89.1651 26.37C89.8251 26.37 90.3517 26.5367 90.7451 26.87C91.1384 27.1967 91.3551 27.64 91.3951 28.2H90.0551C90.0351 27.98 89.9417 27.8067 89.7751 27.68C89.6151 27.5467 89.3984 27.48 89.1251 27.48C88.8717 27.48 88.6751 27.5267 88.5351 27.62C88.4017 27.7133 88.3351 27.8433 88.3351 28.01C88.3351 28.1967 88.4284 28.34 88.6151 28.44C88.8017 28.5333 89.0917 28.63 89.4851 28.73C89.8851 28.83 90.2151 28.9333 90.4751 29.04C90.7351 29.1467 90.9584 29.3133 91.1451 29.54C91.3384 29.76 91.4384 30.0533 91.4451 30.42C91.4451 30.74 91.3551 31.0267 91.1751 31.28C91.0017 31.5333 90.7484 31.7333 90.4151 31.88C90.0884 32.02 89.7051 32.09 89.2651 32.09ZM97.1471 26.37C97.5604 26.37 97.9238 26.4533 98.2371 26.62C98.5504 26.78 98.7971 26.99 98.9771 27.25V26.46H100.387V32.04C100.387 32.5533 100.284 33.01 100.077 33.41C99.8704 33.8167 99.5604 34.1367 99.1471 34.37C98.7338 34.61 98.2338 34.73 97.6471 34.73C96.8604 34.73 96.2138 34.5467 95.7071 34.18C95.2071 33.8133 94.9238 33.3133 94.8571 32.68H96.2471C96.3204 32.9333 96.4771 33.1333 96.7171 33.28C96.9638 33.4333 97.2604 33.51 97.6071 33.51C98.0138 33.51 98.3438 33.3867 98.5971 33.14C98.8504 32.9 98.9771 32.5333 98.9771 32.04V31.18C98.7971 31.44 98.5471 31.6567 98.2271 31.83C97.9138 32.0033 97.5538 32.09 97.1471 32.09C96.6804 32.09 96.2538 31.97 95.8671 31.73C95.4804 31.49 95.1738 31.1533 94.9471 30.72C94.7271 30.28 94.6171 29.7767 94.6171 29.21C94.6171 28.65 94.7271 28.1533 94.9471 27.72C95.1738 27.2867 95.4771 26.9533 95.8571 26.72C96.2438 26.4867 96.6738 26.37 97.1471 26.37ZM98.9771 29.23C98.9771 28.89 98.9104 28.6 98.7771 28.36C98.6438 28.1133 98.4638 27.9267 98.2371 27.8C98.0104 27.6667 97.7671 27.6 97.5071 27.6C97.2471 27.6 97.0071 27.6633 96.7871 27.79C96.5671 27.9167 96.3871 28.1033 96.2471 28.35C96.1138 28.59 96.0471 28.8767 96.0471 29.21C96.0471 29.5433 96.1138 29.8367 96.2471 30.09C96.3871 30.3367 96.5671 30.5267 96.7871 30.66C97.0138 30.7933 97.2538 30.86 97.5071 30.86C97.7671 30.86 98.0104 30.7967 98.2371 30.67C98.4638 30.5367 98.6438 30.35 98.7771 30.11C98.9104 29.8633 98.9771 29.57 98.9771 29.23ZM106.904 29.11C106.904 29.31 106.891 29.49 106.864 29.65H102.814C102.848 30.05 102.988 30.3633 103.234 30.59C103.481 30.8167 103.784 30.93 104.144 30.93C104.664 30.93 105.034 30.7067 105.254 30.26H106.764C106.604 30.7933 106.298 31.2333 105.844 31.58C105.391 31.92 104.834 32.09 104.174 32.09C103.641 32.09 103.161 31.9733 102.734 31.74C102.314 31.5 101.984 31.1633 101.744 30.73C101.511 30.2967 101.394 29.7967 101.394 29.23C101.394 28.6567 101.511 28.1533 101.744 27.72C101.978 27.2867 102.304 26.9533 102.724 26.72C103.144 26.4867 103.628 26.37 104.174 26.37C104.701 26.37 105.171 26.4833 105.584 26.71C106.004 26.9367 106.328 27.26 106.554 27.68C106.788 28.0933 106.904 28.57 106.904 29.11ZM105.454 28.71C105.448 28.35 105.318 28.0633 105.064 27.85C104.811 27.63 104.501 27.52 104.134 27.52C103.788 27.52 103.494 27.6267 103.254 27.84C103.021 28.0467 102.878 28.3367 102.824 28.71H105.454ZM110.996 26.38C111.656 26.38 112.19 26.59 112.596 27.01C113.003 27.4233 113.206 28.0033 113.206 28.75V32H111.806V28.94C111.806 28.5 111.696 28.1633 111.476 27.93C111.256 27.69 110.956 27.57 110.576 27.57C110.19 27.57 109.883 27.69 109.656 27.93C109.436 28.1633 109.326 28.5 109.326 28.94V32H107.926V26.46H109.326V27.15C109.513 26.91 109.75 26.7233 110.036 26.59C110.33 26.45 110.65 26.38 110.996 26.38ZM119.688 29.11C119.688 29.31 119.674 29.49 119.648 29.65H115.598C115.631 30.05 115.771 30.3633 116.018 30.59C116.264 30.8167 116.568 30.93 116.928 30.93C117.448 30.93 117.818 30.7067 118.038 30.26H119.548C119.388 30.7933 119.081 31.2333 118.628 31.58C118.174 31.92 117.618 32.09 116.958 32.09C116.424 32.09 115.944 31.9733 115.518 31.74C115.098 31.5 114.768 31.1633 114.528 30.73C114.294 30.2967 114.178 29.7967 114.178 29.23C114.178 28.6567 114.294 28.1533 114.528 27.72C114.761 27.2867 115.088 26.9533 115.508 26.72C115.928 26.4867 116.411 26.37 116.958 26.37C117.484 26.37 117.954 26.4833 118.368 26.71C118.788 26.9367 119.111 27.26 119.338 27.68C119.571 28.0933 119.688 28.57 119.688 29.11ZM118.238 28.71C118.231 28.35 118.101 28.0633 117.848 27.85C117.594 27.63 117.284 27.52 116.918 27.52C116.571 27.52 116.278 27.6267 116.038 27.84C115.804 28.0467 115.661 28.3367 115.608 28.71H118.238ZM122.11 27.32C122.29 27.0267 122.523 26.7967 122.81 26.63C123.103 26.4633 123.436 26.38 123.81 26.38V27.85H123.44C123 27.85 122.666 27.9533 122.44 28.16C122.22 28.3667 122.11 28.7267 122.11 29.24V32H120.71V26.46H122.11V27.32ZM124.392 29.21C124.392 28.65 124.502 28.1533 124.722 27.72C124.949 27.2867 125.253 26.9533 125.633 26.72C126.019 26.4867 126.449 26.37 126.923 26.37C127.336 26.37 127.696 26.4533 128.003 26.62C128.316 26.7867 128.566 26.9967 128.753 27.25V26.46H130.163V32H128.753V31.19C128.573 31.45 128.323 31.6667 128.003 31.84C127.689 32.0067 127.326 32.09 126.913 32.09C126.446 32.09 126.019 31.97 125.633 31.73C125.253 31.49 124.949 31.1533 124.722 30.72C124.502 30.28 124.392 29.7767 124.392 29.21ZM128.753 29.23C128.753 28.89 128.686 28.6 128.553 28.36C128.419 28.1133 128.239 27.9267 128.013 27.8C127.786 27.6667 127.543 27.6 127.283 27.6C127.023 27.6 126.783 27.6633 126.562 27.79C126.343 27.9167 126.163 28.1033 126.023 28.35C125.889 28.59 125.823 28.8767 125.823 29.21C125.823 29.5433 125.889 29.8367 126.023 30.09C126.163 30.3367 126.343 30.5267 126.562 30.66C126.789 30.7933 127.029 30.86 127.283 30.86C127.543 30.86 127.786 30.7967 128.013 30.67C128.239 30.5367 128.419 30.35 128.553 30.11C128.686 29.8633 128.753 29.57 128.753 29.23ZM133.16 27.61V30.29C133.16 30.4767 133.203 30.6133 133.29 30.7C133.383 30.78 133.537 30.82 133.75 30.82H134.4V32H133.52C132.34 32 131.75 31.4267 131.75 30.28V27.61H131.09V26.46H131.75V25.09H133.16V26.46H134.4V27.61H133.16ZM140.557 29.11C140.557 29.31 140.543 29.49 140.517 29.65H136.467C136.5 30.05 136.64 30.3633 136.887 30.59C137.133 30.8167 137.437 30.93 137.797 30.93C138.317 30.93 138.687 30.7067 138.907 30.26H140.417C140.257 30.7933 139.95 31.2333 139.497 31.58C139.043 31.92 138.487 32.09 137.827 32.09C137.293 32.09 136.813 31.9733 136.387 31.74C135.967 31.5 135.637 31.1633 135.397 30.73C135.163 30.2967 135.047 29.7967 135.047 29.23C135.047 28.6567 135.163 28.1533 135.397 27.72C135.63 27.2867 135.957 26.9533 136.377 26.72C136.797 26.4867 137.28 26.37 137.827 26.37C138.353 26.37 138.823 26.4833 139.237 26.71C139.657 26.9367 139.98 27.26 140.207 27.68C140.44 28.0933 140.557 28.57 140.557 29.11ZM139.107 28.71C139.1 28.35 138.97 28.0633 138.717 27.85C138.463 27.63 138.153 27.52 137.787 27.52C137.44 27.52 137.147 27.6267 136.907 27.84C136.673 28.0467 136.53 28.3367 136.477 28.71H139.107ZM141.219 29.21C141.219 28.65 141.329 28.1533 141.549 27.72C141.775 27.2867 142.082 26.9533 142.469 26.72C142.855 26.4867 143.285 26.37 143.759 26.37C144.119 26.37 144.462 26.45 144.789 26.61C145.115 26.7633 145.375 26.97 145.569 27.23V24.6H146.989V32H145.569V31.18C145.395 31.4533 145.152 31.6733 144.839 31.84C144.525 32.0067 144.162 32.09 143.749 32.09C143.282 32.09 142.855 31.97 142.469 31.73C142.082 31.49 141.775 31.1533 141.549 30.72C141.329 30.28 141.219 29.7767 141.219 29.21ZM145.579 29.23C145.579 28.89 145.512 28.6 145.379 28.36C145.245 28.1133 145.065 27.9267 144.839 27.8C144.612 27.6667 144.369 27.6 144.109 27.6C143.849 27.6 143.609 27.6633 143.389 27.79C143.169 27.9167 142.989 28.1033 142.849 28.35C142.715 28.59 142.649 28.8767 142.649 29.21C142.649 29.5433 142.715 29.8367 142.849 30.09C142.989 30.3367 143.169 30.5267 143.389 30.66C143.615 30.7933 143.855 30.86 144.109 30.86C144.369 30.86 144.612 30.7967 144.839 30.67C145.065 30.5367 145.245 30.35 145.379 30.11C145.512 29.8633 145.579 29.57 145.579 29.23Z" fill="black"/>
<rect x="20" y="46" width="59" height="9" rx="4.5" fill="#E2E2E2"/>
<rect x="89" y="46" width="59" height="9" rx="4.5" fill="#E2E2E2"/>
<rect x="158" y="46" width="59" height="9" rx="4.5" fill="#E2E2E2"/>
<rect x="227" y="46" width="59" height="9" rx="4.5" fill="#E2E2E2"/>
<rect x="296" y="46" width="59" height="9" rx="4.5" fill="#E2E2E2"/>
</g>
<rect x="0.5" y="0.5" width="385" height="88" rx="9.5" stroke="#652D90"/>
<defs>
<clipPath id="clip0_3246_3307">
<rect width="386" height="89" rx="10" fill="white"/>
</clipPath>
</defs>
</svg>
