<svg width="200" height="97" viewBox="0 0 200 97" fill="none" xmlns="http://www.w3.org/2000/svg">
<g filter="url(#filter0_b_1014_95039)">
<rect x="0.305542" y="14.8193" width="67.3611" height="67.3611" rx="33.6806" fill="#59D3D4" fill-opacity="0.1"/>
</g>
<path d="M33.9861 35.3643C31.3882 35.3643 28.8486 36.1346 26.6885 37.578C24.5284 39.0213 22.8448 41.0728 21.8506 43.473C20.8564 45.8732 20.5963 48.5142 21.1031 51.0623C21.6099 53.6103 22.861 55.9508 24.698 57.7878C26.535 59.6248 28.8755 60.8759 31.4235 61.3827C33.9716 61.8895 36.6127 61.6294 39.0128 60.6352C41.413 59.641 43.4645 57.9574 44.9078 55.7973C46.3512 53.6372 47.1215 51.0976 47.1215 48.4997C47.1179 45.0171 45.7328 41.6782 43.2702 39.2156C40.8076 36.753 37.4687 35.3679 33.9861 35.3643ZM27.1759 57.2777C27.9069 56.1345 28.9138 55.1937 30.104 54.542C31.2942 53.8904 32.6292 53.5488 33.9861 53.5488C35.343 53.5488 36.6781 53.8904 37.8682 54.542C39.0584 55.1937 40.0654 56.1345 40.7963 57.2777C38.8492 58.792 36.4528 59.6142 33.9861 59.6142C31.5194 59.6142 29.1231 58.792 27.1759 57.2777ZM29.9445 47.4893C29.9445 46.6899 30.1815 45.9085 30.6256 45.2438C31.0697 44.5792 31.7009 44.0611 32.4395 43.7552C33.178 43.4493 33.9906 43.3693 34.7746 43.5252C35.5586 43.6812 36.2788 44.0661 36.844 44.6314C37.4093 45.1966 37.7942 45.9168 37.9501 46.7008C38.1061 47.4848 38.026 48.2974 37.7201 49.0359C37.4142 49.7745 36.8962 50.4057 36.2316 50.8498C35.5669 51.2939 34.7855 51.5309 33.9861 51.5309C32.9142 51.5309 31.8862 51.1051 31.1282 50.3471C30.3703 49.5892 29.9445 48.5612 29.9445 47.4893ZM42.2918 55.877C41.1648 54.244 39.5803 52.9806 37.7373 52.2458C38.7273 51.4661 39.4497 50.3972 39.804 49.1879C40.1584 47.9786 40.1271 46.6889 39.7145 45.4982C39.3018 44.3075 38.5284 43.2749 37.5018 42.5441C36.4752 41.8134 35.2463 41.4207 33.9861 41.4207C32.726 41.4207 31.4971 41.8134 30.4705 42.5441C29.4438 43.2749 28.6704 44.3075 28.2578 45.4982C27.8452 46.6889 27.8139 47.9786 28.1682 49.1879C28.5226 50.3972 29.245 51.4661 30.235 52.2458C28.392 52.9806 26.8074 54.244 25.6805 55.877C24.2565 54.2757 23.3258 52.2969 23.0004 50.1789C22.675 48.0608 22.9689 45.8939 23.8465 43.939C24.7241 41.9841 26.1482 40.3246 27.9471 39.1603C29.7461 37.996 31.8433 37.3766 33.9861 37.3766C36.129 37.3766 38.2262 37.996 40.0251 39.1603C41.8241 40.3246 43.2481 41.9841 44.1258 43.939C45.0034 45.8939 45.2972 48.0608 44.9718 50.1789C44.6464 52.2969 43.7157 54.2757 42.2918 55.877Z" fill="#59D3D4"/>
<g filter="url(#filter1_b_1014_95039)">
<rect x="132.333" y="14.8193" width="67.3611" height="67.3611" rx="33.6806" fill="#59D3D4" fill-opacity="0.1"/>
</g>
<path d="M166.014 35.3643C163.416 35.3643 160.876 36.1346 158.716 37.578C156.556 39.0213 154.873 41.0728 153.878 43.473C152.884 45.8732 152.624 48.5142 153.131 51.0623C153.638 53.6103 154.889 55.9508 156.726 57.7878C158.563 59.6248 160.903 60.8759 163.451 61.3827C165.999 61.8895 168.64 61.6294 171.041 60.6352C173.441 59.641 175.492 57.9574 176.936 55.7973C178.379 53.6372 179.149 51.0976 179.149 48.4997C179.146 45.0171 177.761 41.6782 175.298 39.2156C172.835 36.753 169.497 35.3679 166.014 35.3643ZM159.204 57.2777C159.935 56.1345 160.942 55.1937 162.132 54.542C163.322 53.8904 164.657 53.5488 166.014 53.5488C167.371 53.5488 168.706 53.8904 169.896 54.542C171.086 55.1937 172.093 56.1345 172.824 57.2777C170.877 58.792 168.481 59.6142 166.014 59.6142C163.547 59.6142 161.151 58.792 159.204 57.2777ZM161.972 47.4893C161.972 46.6899 162.209 45.9085 162.653 45.2438C163.097 44.5792 163.729 44.0611 164.467 43.7552C165.206 43.4493 166.018 43.3693 166.802 43.5252C167.586 43.6812 168.307 44.0661 168.872 44.6314C169.437 45.1966 169.822 45.9168 169.978 46.7008C170.134 47.4848 170.054 48.2974 169.748 49.0359C169.442 49.7745 168.924 50.4057 168.259 50.8498C167.595 51.2939 166.813 51.5309 166.014 51.5309C164.942 51.5309 163.914 51.1051 163.156 50.3471C162.398 49.5892 161.972 48.5612 161.972 47.4893ZM174.32 55.877C173.193 54.244 171.608 52.9806 169.765 52.2458C170.755 51.4661 171.477 50.3972 171.832 49.1879C172.186 47.9786 172.155 46.6889 171.742 45.4982C171.33 44.3075 170.556 43.2749 169.53 42.5441C168.503 41.8134 167.274 41.4207 166.014 41.4207C164.754 41.4207 163.525 41.8134 162.498 42.5441C161.472 43.2749 160.698 44.3075 160.286 45.4982C159.873 46.6889 159.842 47.9786 160.196 49.1879C160.55 50.3972 161.273 51.4661 162.263 52.2458C160.42 52.9806 158.835 54.244 157.708 55.877C156.284 54.2757 155.354 52.2969 155.028 50.1789C154.703 48.0608 154.997 45.8939 155.874 43.939C156.752 41.9841 158.176 40.3246 159.975 39.1603C161.774 37.996 163.871 37.3766 166.014 37.3766C168.157 37.3766 170.254 37.996 172.053 39.1603C173.852 40.3246 175.276 41.9841 176.154 43.939C177.031 45.8939 177.325 48.0608 177 50.1789C176.674 52.2969 175.743 54.2757 174.32 55.877Z" fill="#59D3D4"/>
<g filter="url(#filter2_b_1014_95039)">
<rect x="51.5" width="97" height="97" rx="48.5" fill="#59D3D4" fill-opacity="0.1"/>
</g>
<path d="M110.819 55.2773L106.777 59.3189C106.588 59.5085 106.331 59.6151 106.062 59.6151C105.794 59.6151 105.537 59.5085 105.348 59.3189C105.158 59.1294 105.051 58.8722 105.051 58.6041C105.051 58.3359 105.158 58.0788 105.348 57.8892L107.665 55.5728H89.8958C89.6278 55.5728 89.3708 55.4664 89.1813 55.2769C88.9918 55.0874 88.8854 54.8304 88.8854 54.5624C88.8854 54.2944 88.9918 54.0374 89.1813 53.8479C89.3708 53.6584 89.6278 53.552 89.8958 53.552H107.665L105.348 51.2356C105.158 51.046 105.051 50.7889 105.051 50.5207C105.051 50.2526 105.158 49.9955 105.348 49.8059C105.537 49.6163 105.794 49.5098 106.062 49.5098C106.331 49.5098 106.588 49.6163 106.777 49.8059L110.819 53.8475C110.913 53.9414 110.987 54.0528 111.038 54.1755C111.089 54.2981 111.115 54.4296 111.115 54.5624C111.115 54.6952 111.089 54.8267 111.038 54.9493C110.987 55.072 110.913 55.1834 110.819 55.2773ZM93.2226 47.1939C93.4122 47.3835 93.6693 47.4901 93.9375 47.4901C94.2056 47.4901 94.4627 47.3835 94.6523 47.1939C94.8419 47.0044 94.9484 46.7472 94.9484 46.4791C94.9484 46.2109 94.8419 45.9538 94.6523 45.7642L92.3347 43.4478H110.104C110.372 43.4478 110.629 43.3414 110.819 43.1519C111.008 42.9624 111.115 42.7054 111.115 42.4374C111.115 42.1694 111.008 41.9124 110.819 41.7229C110.629 41.5334 110.372 41.427 110.104 41.427H92.3347L94.6523 39.1106C94.8419 38.921 94.9484 38.6639 94.9484 38.3957C94.9484 38.1276 94.8419 37.8705 94.6523 37.6809C94.4627 37.4913 94.2056 37.3848 93.9375 37.3848C93.6693 37.3848 93.4122 37.4913 93.2226 37.6809L89.1809 41.7225C89.087 41.8164 89.0125 41.9278 88.9616 42.0505C88.9108 42.1731 88.8846 42.3046 88.8846 42.4374C88.8846 42.5702 88.9108 42.7017 88.9616 42.8243C89.0125 42.947 89.087 43.0584 89.1809 43.1523L93.2226 47.1939Z" fill="#59D3D4"/>
<defs>
<filter id="filter0_b_1014_95039" x="-26.6389" y="-12.1251" width="121.25" height="121.25" filterUnits="userSpaceOnUse" color-interpolation-filters="sRGB">
<feFlood flood-opacity="0" result="BackgroundImageFix"/>
<feGaussianBlur in="BackgroundImageFix" stdDeviation="13.4722"/>
<feComposite in2="SourceAlpha" operator="in" result="effect1_backgroundBlur_1014_95039"/>
<feBlend mode="normal" in="SourceGraphic" in2="effect1_backgroundBlur_1014_95039" result="shape"/>
</filter>
<filter id="filter1_b_1014_95039" x="105.389" y="-12.1251" width="121.25" height="121.25" filterUnits="userSpaceOnUse" color-interpolation-filters="sRGB">
<feFlood flood-opacity="0" result="BackgroundImageFix"/>
<feGaussianBlur in="BackgroundImageFix" stdDeviation="13.4722"/>
<feComposite in2="SourceAlpha" operator="in" result="effect1_backgroundBlur_1014_95039"/>
<feBlend mode="normal" in="SourceGraphic" in2="effect1_backgroundBlur_1014_95039" result="shape"/>
</filter>
<filter id="filter2_b_1014_95039" x="24.5556" y="-26.9444" width="150.889" height="150.889" filterUnits="userSpaceOnUse" color-interpolation-filters="sRGB">
<feFlood flood-opacity="0" result="BackgroundImageFix"/>
<feGaussianBlur in="BackgroundImageFix" stdDeviation="13.4722"/>
<feComposite in2="SourceAlpha" operator="in" result="effect1_backgroundBlur_1014_95039"/>
<feBlend mode="normal" in="SourceGraphic" in2="effect1_backgroundBlur_1014_95039" result="shape"/>
</filter>
</defs>
</svg>
