<svg width="16" height="16" viewBox="0 0 16 16" fill="none" xmlns="http://www.w3.org/2000/svg">
<path fill-rule="evenodd" clip-rule="evenodd" d="M3.28593 3.28612C4.53618 2.03588 6.23187 1.3335 7.99998 1.3335C9.76809 1.3335 11.4638 2.03588 12.714 3.28612C13.9643 4.53636 14.6666 6.23205 14.6666 8.00016C14.6666 8.87564 14.4942 9.74255 14.1592 10.5514C13.8241 11.3602 13.3331 12.0952 12.714 12.7142C12.095 13.3333 11.36 13.8243 10.5512 14.1594C9.74236 14.4944 8.87546 14.6668 7.99998 14.6668C7.1245 14.6668 6.25759 14.4944 5.44876 14.1594C4.63992 13.8243 3.90499 13.3333 3.28593 12.7142C2.66688 12.0952 2.17581 11.3602 1.84078 10.5514C1.50575 9.74255 1.33331 8.87564 1.33331 8.00016C1.33331 6.23205 2.03569 4.53636 3.28593 3.28612ZM7.99998 2.66683C6.58549 2.66683 5.22894 3.22873 4.22874 4.22893C3.22855 5.22912 2.66665 6.58568 2.66665 8.00016C2.66665 8.70055 2.8046 9.39407 3.07262 10.0411C3.34065 10.6882 3.7335 11.2762 4.22874 11.7714C4.72399 12.2666 5.31193 12.6595 5.959 12.9275C6.60607 13.1955 7.2996 13.3335 7.99998 13.3335C8.70036 13.3335 9.39389 13.1955 10.041 12.9275C10.688 12.6595 11.276 12.2666 11.7712 11.7714C12.2665 11.2762 12.6593 10.6882 12.9273 10.0411C13.1954 9.39407 13.3333 8.70055 13.3333 8.00016C13.3333 6.58568 12.7714 5.22912 11.7712 4.22893C10.771 3.22873 9.41447 2.66683 7.99998 2.66683ZM7.33331 6.00016C7.33331 5.63197 7.63179 5.3335 7.99998 5.3335H8.00665C8.37484 5.3335 8.67331 5.63197 8.67331 6.00016C8.67331 6.36835 8.37484 6.66683 8.00665 6.66683H7.99998C7.63179 6.66683 7.33331 6.36835 7.33331 6.00016Z" fill="#4F4F4F"/>
<path fill-rule="evenodd" clip-rule="evenodd" d="M6.66665 8.00016C6.66665 7.63197 6.96512 7.3335 7.33331 7.3335H7.99998C8.36817 7.3335 8.66665 7.63197 8.66665 8.00016V10.0002C9.03484 10.0002 9.33331 10.2986 9.33331 10.6668C9.33331 11.035 9.03484 11.3335 8.66665 11.3335H7.99998C7.63179 11.3335 7.33331 11.035 7.33331 10.6668V8.66683C6.96512 8.66683 6.66665 8.36835 6.66665 8.00016Z" fill="#4F4F4F"/>
</svg>
