<svg width="24" height="25" viewBox="0 0 24 25" fill="blue" xmlns="http://www.w3.org/2000/svg">
<path d="M15.5306 10.4662L13.0603 12.9355L15.5306 15.4049C15.6003 15.4746 15.6556 15.5573 15.6933 15.6484C15.731 15.7394 15.7504 15.837 15.7504 15.9355C15.7504 16.0341 15.731 16.1317 15.6933 16.2227C15.6556 16.3138 15.6003 16.3965 15.5306 16.4662C15.4609 16.5359 15.3782 16.5911 15.2872 16.6288C15.1961 16.6666 15.0986 16.686 15 16.686C14.9015 16.686 14.8039 16.6666 14.7128 16.6288C14.6218 16.5911 14.5391 16.5359 14.4694 16.4662L12 13.9959L9.53063 16.4662C9.46095 16.5359 9.37822 16.5911 9.28718 16.6288C9.19613 16.6666 9.09855 16.686 9 16.686C8.90146 16.686 8.80388 16.6666 8.71283 16.6288C8.62179 16.5911 8.53906 16.5359 8.46938 16.4662C8.3997 16.3965 8.34442 16.3138 8.30671 16.2227C8.269 16.1317 8.24959 16.0341 8.24959 15.9355C8.24959 15.837 8.269 15.7394 8.30671 15.6484C8.34442 15.5573 8.3997 15.4746 8.46938 15.4049L10.9397 12.9355L8.46938 10.4662C8.32865 10.3254 8.24959 10.1346 8.24959 9.93555C8.24959 9.73652 8.32865 9.54565 8.46938 9.40492C8.61011 9.26419 8.80098 9.18513 9 9.18513C9.19903 9.18513 9.3899 9.26419 9.53063 9.40492L12 11.8752L14.4694 9.40492C14.5391 9.33524 14.6218 9.27996 14.7128 9.24225C14.8039 9.20454 14.9015 9.18513 15 9.18513C15.0986 9.18513 15.1961 9.20454 15.2872 9.24225C15.3782 9.27996 15.4609 9.33524 15.5306 9.40492C15.6003 9.4746 15.6556 9.55733 15.6933 9.64837C15.731 9.73942 15.7504 9.837 15.7504 9.93555C15.7504 10.0341 15.731 10.1317 15.6933 10.2227C15.6556 10.3138 15.6003 10.3965 15.5306 10.4662ZM21.75 12.9355C21.75 14.8639 21.1782 16.749 20.1068 18.3524C19.0355 19.9557 17.5127 21.2054 15.7312 21.9434C13.9496 22.6813 11.9892 22.8744 10.0979 22.4982C8.20656 22.122 6.46928 21.1934 5.10571 19.8298C3.74215 18.4663 2.81355 16.729 2.43735 14.8377C2.06114 12.9464 2.25422 10.986 2.99218 9.20438C3.73013 7.4228 4.97982 5.90006 6.58319 4.82872C8.18657 3.75737 10.0716 3.18555 12 3.18555C14.585 3.18828 17.0634 4.21638 18.8913 6.04427C20.7192 7.87216 21.7473 10.3505 21.75 12.9355ZM20.25 12.9355C20.25 11.3039 19.7661 9.7088 18.8596 8.35209C17.9531 6.99539 16.6646 5.93796 15.1571 5.31354C13.6497 4.68912 11.9909 4.52574 10.3905 4.84407C8.79017 5.1624 7.32016 5.94813 6.16637 7.10192C5.01259 8.2557 4.22685 9.72571 3.90853 11.3261C3.5902 12.9264 3.75358 14.5852 4.378 16.0927C5.00242 17.6002 6.05984 18.8886 7.41655 19.7952C8.77326 20.7017 10.3683 21.1855 12 21.1855C14.1873 21.1831 16.2843 20.3131 17.8309 18.7664C19.3775 17.2198 20.2475 15.1228 20.25 12.9355Z" fill="#EB2F2F"/>
</svg>
