<svg xmlns="http://www.w3.org/2000/svg" width="110" height="111" viewBox="0 0 110 111" fill="none">
    <path d="M74.6196 42.7555C74.9392 43.0747 75.1927 43.4538 75.3657 43.8711C75.5387 44.2884 75.6277 44.7358 75.6277 45.1875C75.6277 45.6392 75.5387 46.0865 75.3657 46.5039C75.1927 46.9212 74.9392 47.3003 74.6196 47.6195L50.5571 71.682C50.2378 72.0016 49.8587 72.2552 49.4414 72.4282C49.0241 72.6012 48.5768 72.6902 48.125 72.6902C47.6733 72.6902 47.226 72.6012 46.8087 72.4282C46.3914 72.2552 46.0122 72.0016 45.693 71.682L35.3805 61.3695C34.7355 60.7245 34.3731 59.8497 34.3731 58.9375C34.3731 58.0253 34.7355 57.1505 35.3805 56.5055C36.0255 55.8605 36.9003 55.4981 37.8125 55.4981C38.7247 55.4981 39.5995 55.8605 40.2446 56.5055L48.125 64.3902L69.7555 42.7555C70.0747 42.4359 70.4539 42.1823 70.8712 42.0093C71.2885 41.8363 71.7358 41.7473 72.1875 41.7473C72.6393 41.7473 73.0866 41.8363 73.5039 42.0093C73.9212 42.1823 74.3003 42.4359 74.6196 42.7555ZM99.6875 55.5C99.6875 64.3383 97.0667 72.9782 92.1563 80.327C87.246 87.6759 80.2668 93.4036 72.1012 96.7859C63.9356 100.168 54.9505 101.053 46.2819 99.3288C37.6134 97.6046 29.6508 93.3485 23.4012 87.0988C17.1515 80.8492 12.8955 72.8866 11.1712 64.2181C9.4469 55.5496 10.3319 46.5644 13.7142 38.3988C17.0964 30.2333 22.8242 23.254 30.173 18.3437C37.5218 13.4334 46.1617 10.8125 55 10.8125C66.848 10.825 78.2072 15.5372 86.585 23.915C94.9629 32.2928 99.675 43.652 99.6875 55.5ZM92.8125 55.5C92.8125 48.0214 90.5949 40.7107 86.44 34.4925C82.2851 28.2743 76.3796 23.4277 69.4702 20.5658C62.5609 17.7039 54.9581 16.9551 47.6232 18.4141C40.2883 19.8731 33.5507 23.4744 28.2625 28.7625C22.9744 34.0507 19.3731 40.7882 17.9141 48.1231C16.4551 55.458 17.2039 63.0609 20.0658 69.9702C22.9278 76.8795 27.7743 82.785 33.9925 86.9399C40.2108 91.0948 47.5214 93.3125 55 93.3125C65.025 93.3011 74.6362 89.3137 81.7249 82.2249C88.8137 75.1362 92.8012 65.525 92.8125 55.5Z"
          fill="#008000"/>
</svg>