<svg xmlns="http://www.w3.org/2000/svg" width="110" height="110" viewBox="0 0 110 110" fill="none">
    <path d="M71.1821 43.682L59.8598 55L71.1821 66.318C71.5014 66.6373 71.7548 67.0165 71.9276 67.4338C72.1005 67.8511 72.1894 68.2983 72.1894 68.75C72.1894 69.2017 72.1005 69.6489 71.9276 70.0662C71.7548 70.4835 71.5014 70.8626 71.1821 71.182C70.8627 71.5014 70.4835 71.7547 70.0662 71.9276C69.6489 72.1004 69.2017 72.1894 68.75 72.1894C68.2984 72.1894 67.8511 72.1004 67.4338 71.9276C67.0165 71.7547 66.6374 71.5014 66.318 71.182L55 59.8598L43.6821 71.182C43.3627 71.5014 42.9835 71.7547 42.5662 71.9276C42.1489 72.1004 41.7017 72.1894 41.25 72.1894C40.7984 72.1894 40.3511 72.1004 39.9338 71.9276C39.5165 71.7547 39.1374 71.5014 38.818 71.182C38.4986 70.8626 38.2453 70.4835 38.0724 70.0662C37.8996 69.6489 37.8106 69.2017 37.8106 68.75C37.8106 68.2983 37.8996 67.8511 38.0724 67.4338C38.2453 67.0165 38.4986 66.6373 38.818 66.318L50.1403 55L38.818 43.682C38.173 43.037 37.8106 42.1622 37.8106 41.25C37.8106 40.3378 38.173 39.463 38.818 38.818C39.463 38.173 40.3378 37.8106 41.25 37.8106C42.1622 37.8106 43.037 38.173 43.6821 38.818L55 50.1402L66.318 38.818C66.6374 38.4986 67.0165 38.2452 67.4338 38.0724C67.8511 37.8995 68.2984 37.8106 68.75 37.8106C69.2017 37.8106 69.6489 37.8995 70.0662 38.0724C70.4835 38.2452 70.8627 38.4986 71.1821 38.818C71.5014 39.1373 71.7548 39.5165 71.9276 39.9338C72.1005 40.3511 72.1894 40.7983 72.1894 41.25C72.1894 41.7017 72.1005 42.1489 71.9276 42.5662C71.7548 42.9835 71.5014 43.3627 71.1821 43.682ZM99.6875 55C99.6875 63.8383 97.0667 72.4782 92.1563 79.827C87.246 87.1759 80.2668 92.9036 72.1012 96.2859C63.9356 99.6682 54.9505 100.553 46.2819 98.8288C37.6134 97.1046 29.6508 92.8485 23.4012 86.5988C17.1515 80.3492 12.8955 72.3866 11.1712 63.7181C9.4469 55.0496 10.3319 46.0644 13.7142 37.8988C17.0964 29.7333 22.8242 22.754 30.173 17.8437C37.5218 12.9334 46.1617 10.3125 55 10.3125C66.848 10.325 78.2072 15.0372 86.585 23.415C94.9629 31.7928 99.675 43.152 99.6875 55ZM92.8125 55C92.8125 47.5214 90.5949 40.2107 86.44 33.9925C82.2851 27.7743 76.3796 22.9277 69.4702 20.0658C62.5609 17.2039 54.9581 16.4551 47.6232 17.9141C40.2883 19.3731 33.5507 22.9744 28.2625 28.2625C22.9744 33.5507 19.3731 40.2882 17.9141 47.6231C16.4551 54.958 17.2039 62.5609 20.0658 69.4702C22.9278 76.3795 27.7743 82.285 33.9925 86.4399C40.2108 90.5948 47.5214 92.8125 55 92.8125C65.025 92.8011 74.6362 88.8137 81.7249 81.7249C88.8137 74.6362 92.8012 65.025 92.8125 55Z"
          fill="#EB2F2F"/>
</svg>