<svg xmlns="http://www.w3.org/2000/svg" width="24" height="25" viewBox="0 0 24 25" fill="none">
    <path d="M18.75 11C18.75 11.1989 18.671 11.3897 18.5303 11.5303C18.3897 11.671 18.1989 11.75 18 11.75H14.25C14.0511 11.75 13.8603 11.671 13.7197 11.5303C13.579 11.3897 13.5 11.1989 13.5 11C13.5 10.8011 13.579 10.6103 13.7197 10.4697C13.8603 10.329 14.0511 10.25 14.25 10.25H18C18.1989 10.25 18.3897 10.329 18.5303 10.4697C18.671 10.6103 18.75 10.8011 18.75 11ZM18 13.25H14.25C14.0511 13.25 13.8603 13.329 13.7197 13.4697C13.579 13.6103 13.5 13.8011 13.5 14C13.5 14.1989 13.579 14.3897 13.7197 14.5303C13.8603 14.671 14.0511 14.75 14.25 14.75H18C18.1989 14.75 18.3897 14.671 18.5303 14.5303C18.671 14.3897 18.75 14.1989 18.75 14C18.75 13.8011 18.671 13.6103 18.5303 13.4697C18.3897 13.329 18.1989 13.25 18 13.25ZM21.75 5.75V19.25C21.75 19.6478 21.592 20.0294 21.3107 20.3107C21.0294 20.592 20.6478 20.75 20.25 20.75H3.75C3.35218 20.75 2.97064 20.592 2.68934 20.3107C2.40804 20.0294 2.25 19.6478 2.25 19.25V5.75C2.25 5.35218 2.40804 4.97064 2.68934 4.68934C2.97064 4.40804 3.35218 4.25 3.75 4.25H20.25C20.6478 4.25 21.0294 4.40804 21.3107 4.68934C21.592 4.97064 21.75 5.35218 21.75 5.75ZM20.25 19.25V5.75H3.75V19.25H20.25ZM12.7256 16.0625C12.7754 16.2552 12.7465 16.4598 12.6454 16.6312C12.5443 16.8026 12.3793 16.9268 12.1866 16.9766C11.9939 17.0263 11.7893 16.9974 11.6179 16.8963C11.4465 16.7952 11.3222 16.6302 11.2725 16.4375C11.0259 15.4756 10.0481 14.75 8.99906 14.75C7.95 14.75 6.97312 15.4756 6.72563 16.4375C6.6759 16.6302 6.55166 16.7952 6.38024 16.8963C6.20882 16.9974 6.00426 17.0263 5.81156 16.9766C5.61887 16.9268 5.45382 16.8026 5.35272 16.6312C5.25163 16.4598 5.22277 16.2552 5.2725 16.0625C5.51588 15.1566 6.09118 14.3755 6.88406 13.8744C6.46272 13.4555 6.17522 12.921 6.05802 12.3386C5.94082 11.7562 5.99918 11.152 6.22572 10.6028C6.45226 10.0536 6.83676 9.58402 7.3305 9.25358C7.82423 8.92315 8.40496 8.74675 8.99906 8.74675C9.59317 8.74675 10.1739 8.92315 10.6676 9.25358C11.1614 9.58402 11.5459 10.0536 11.7724 10.6028C11.9989 11.152 12.0573 11.7562 11.9401 12.3386C11.8229 12.921 11.5354 13.4555 11.1141 13.8744C11.9078 14.3748 12.4836 15.1562 12.7266 16.0625H12.7256ZM9 13.25C9.29667 13.25 9.58668 13.162 9.83335 12.9972C10.08 12.8324 10.2723 12.5981 10.3858 12.324C10.4994 12.0499 10.5291 11.7483 10.4712 11.4574C10.4133 11.1664 10.2704 10.8991 10.0607 10.6893C9.85088 10.4796 9.58361 10.3367 9.29264 10.2788C9.00166 10.2209 8.70006 10.2506 8.42597 10.3642C8.15189 10.4777 7.91762 10.67 7.7528 10.9166C7.58797 11.1633 7.5 11.4533 7.5 11.75C7.5 12.1478 7.65804 12.5294 7.93934 12.8107C8.22064 13.092 8.60218 13.25 9 13.25Z"
          fill="#4F4F4F"/>
</svg>