<svg xmlns="http://www.w3.org/2000/svg" width="24" height="24" viewBox="0 0 24 24" fill="none">
    <path d="M19.5 3H4.5C4.10218 3 3.72064 3.15804 3.43934 3.43934C3.15804 3.72064 3 4.10218 3 4.5V19.5C3 19.8978 3.15804 20.2794 3.43934 20.5607C3.72064 20.842 4.10218 21 4.5 21H19.5C19.8978 21 20.2794 20.842 20.5607 20.5607C20.842 20.2794 21 19.8978 21 19.5V4.5C21 4.10218 20.842 3.72064 20.5607 3.43934C20.2794 3.15804 19.8978 3 19.5 3ZM12.0534 17.7806L11.5416 18.2916C10.7646 19.0483 9.72084 19.4686 8.63625 19.4615C7.55167 19.4544 6.51353 19.0203 5.7466 18.2534C4.97967 17.4865 4.54565 16.4483 4.5385 15.3637C4.53136 14.2792 4.95167 13.2354 5.70844 12.4584L7.95844 10.2084C8.63392 9.53472 9.52169 9.11547 10.4711 9.02182C11.4205 8.92818 12.3731 9.16592 13.1672 9.69469C13.3325 9.80533 13.4472 9.97713 13.4858 10.1723C13.5245 10.3674 13.4841 10.57 13.3734 10.7353C13.2628 10.9007 13.091 11.0153 12.8958 11.054C12.7007 11.0926 12.4982 11.0522 12.3328 10.9416C11.8278 10.6044 11.2215 10.4527 10.6173 10.5124C10.013 10.572 9.44806 10.8393 9.01875 11.2687L6.76875 13.5187C6.27644 14.0111 5.99987 14.6788 5.99987 15.375C5.99987 15.7197 6.06777 16.0611 6.19969 16.3796C6.33162 16.6981 6.52498 16.9875 6.76875 17.2313C7.01252 17.475 7.30191 17.6684 7.6204 17.8003C7.9389 17.9322 8.28026 18.0001 8.625 18.0001C9.32123 18.0001 9.98894 17.7236 10.4813 17.2313L10.9922 16.7194C11.1329 16.5786 11.3238 16.4996 11.5228 16.4996C11.7218 16.4996 11.9127 16.5786 12.0534 16.7194C12.1942 16.8601 12.2732 17.051 12.2732 17.25C12.2732 17.449 12.1942 17.6399 12.0534 17.7806ZM18.2916 11.5416L16.0416 13.7916C15.3661 14.4653 14.4783 14.8845 13.5289 14.9782C12.5795 15.0718 11.6269 14.8341 10.8328 14.3053C10.6675 14.1947 10.5528 14.0229 10.5142 13.8277C10.4755 13.6326 10.5159 13.43 10.6266 13.2647C10.7372 13.0993 10.909 12.9847 11.1042 12.946C11.2993 12.9074 11.5018 12.9478 11.6672 13.0584C12.1725 13.3946 12.7786 13.5456 13.3826 13.486C13.9866 13.4264 14.5514 13.1597 14.9813 12.7313L17.2313 10.4813C17.7236 9.98894 18.0001 9.32123 18.0001 8.625C18.0001 7.92877 17.7236 7.26106 17.2313 6.76875C16.7389 6.27644 16.0712 5.99987 15.375 5.99987C14.6788 5.99987 14.0111 6.27644 13.5187 6.76875L13.0078 7.28063C12.8671 7.42136 12.6762 7.50042 12.4772 7.50042C12.2782 7.50042 12.0873 7.42136 11.9466 7.28063C11.8058 7.13989 11.7268 6.94902 11.7268 6.75C11.7268 6.55098 11.8058 6.36011 11.9466 6.21937L12.4584 5.70844C13.2354 4.95167 14.2792 4.53136 15.3637 4.5385C16.4483 4.54565 17.4865 4.97967 18.2534 5.7466C19.0203 6.51353 19.4544 7.55167 19.4615 8.63625C19.4686 9.72084 19.0483 10.7646 18.2916 11.5416Z"
          fill="white"/>
</svg>