<svg width="571" height="224" viewBox="0 0 571 224" fill="none" xmlns="http://www.w3.org/2000/svg">
    <g opacity="0.05">
        <rect y="-3.58862" width="13.5148" height="13.5148" rx="1.68935" fill="#207FF1"/>
        <rect x="25.3403" y="-3.58862" width="13.5148" height="13.5148" rx="1.68935" fill="#207FF1"/>
        <rect x="50.6807" y="-3.58862" width="13.5148" height="13.5148" rx="1.68935" fill="white"/>
        <rect x="76.0205" y="-3.58862" width="13.5148" height="13.5148" rx="1.68935" fill="#207FF1"/>
        <rect x="101.361" y="-3.58862" width="13.5148" height="13.5148" rx="1.68935" fill="#207FF1"/>
        <rect x="126.701" y="-3.58862" width="13.5148" height="13.5148" rx="1.68935" fill="#207FF1"/>
        <rect x="152.042" y="-3.58862" width="13.5148" height="13.5148" rx="1.68935" fill="white"/>
        <rect x="177.382" y="-3.58862" width="13.5148" height="13.5148" rx="1.68935" fill="#207FF1"/>
        <rect x="202.722" y="-3.58862" width="13.5148" height="13.5148" rx="1.68935" fill="#207FF1"/>
        <rect x="228.062" y="-3.58862" width="13.5148" height="13.5148" rx="1.68935" fill="#207FF1"/>
        <rect x="253.402" y="-3.58862" width="13.5148" height="13.5148" rx="1.68935" fill="#207FF1"/>
        <rect x="278.743" y="-3.58862" width="13.5148" height="13.5148" rx="1.68935" fill="#207FF1"/>
        <rect x="304.083" y="-3.58862" width="13.5148" height="13.5148" rx="1.68935" fill="#207FF1"/>
        <rect x="329.423" y="-3.58862" width="13.5148" height="13.5148" rx="1.68935" fill="white"/>
        <rect x="354.763" y="-3.58862" width="13.5148" height="13.5148" rx="1.68935" fill="#207FF1"/>
        <rect x="380.104" y="-3.58862" width="13.5148" height="13.5148" rx="1.68935" fill="#207FF1"/>
        <rect x="405.444" y="-3.58862" width="13.5148" height="13.5148" rx="1.68935" fill="#207FF1"/>
        <rect x="430.784" y="-3.58862" width="13.5148" height="13.5148" rx="1.68935" fill="#207FF1"/>
        <rect x="456.125" y="-3.58862" width="13.5148" height="13.5148" rx="1.68935" fill="#207FF1"/>
        <rect x="481.464" y="-3.58862" width="13.5148" height="13.5148" rx="1.68935" fill="#207FF1"/>
        <rect x="506.805" y="-3.58862" width="13.5148" height="13.5148" rx="1.68935" fill="white"/>
        <rect x="532.145" y="-3.58862" width="13.5148" height="13.5148" rx="1.68935" fill="#207FF1"/>
        <rect x="557.485" y="-3.58862" width="13.5148" height="13.5148" rx="1.68935" fill="#207FF1"/>
        <rect y="21.7517" width="13.5148" height="13.5148" rx="1.68935" fill="#207FF1"/>
        <rect x="25.3403" y="21.7517" width="13.5148" height="13.5148" rx="1.68935" fill="#207FF1"/>
        <rect x="50.6807" y="21.7517" width="13.5148" height="13.5148" rx="1.68935" fill="white"/>
        <rect x="76.0205" y="21.7517" width="13.5148" height="13.5148" rx="1.68935" fill="#207FF1"/>
        <rect x="101.361" y="21.7517" width="13.5148" height="13.5148" rx="1.68935" fill="#207FF1"/>
        <rect x="126.701" y="21.7517" width="13.5148" height="13.5148" rx="1.68935" fill="#207FF1"/>
        <rect x="152.042" y="21.7517" width="13.5148" height="13.5148" rx="1.68935" fill="white"/>
        <rect x="177.382" y="21.7517" width="13.5148" height="13.5148" rx="1.68935" fill="#207FF1"/>
        <rect x="202.722" y="21.7517" width="13.5148" height="13.5148" rx="1.68935" fill="#207FF1"/>
        <rect x="228.062" y="21.7517" width="13.5148" height="13.5148" rx="1.68935" fill="#207FF1"/>
        <rect x="253.402" y="21.7517" width="13.5148" height="13.5148" rx="1.68935" fill="#207FF1"/>
        <rect x="278.743" y="21.7517" width="13.5148" height="13.5148" rx="1.68935" fill="#207FF1"/>
        <rect x="304.083" y="21.7517" width="13.5148" height="13.5148" rx="1.68935" fill="#207FF1"/>
        <rect x="329.423" y="21.7517" width="13.5148" height="13.5148" rx="1.68935" fill="white"/>
        <rect x="354.763" y="21.7517" width="13.5148" height="13.5148" rx="1.68935" fill="#207FF1"/>
        <rect x="380.104" y="21.7517" width="13.5148" height="13.5148" rx="1.68935" fill="#207FF1"/>
        <rect x="405.444" y="21.7517" width="13.5148" height="13.5148" rx="1.68935" fill="#207FF1"/>
        <rect x="430.784" y="21.7517" width="13.5148" height="13.5148" rx="1.68935" fill="#207FF1"/>
        <rect x="456.125" y="21.7517" width="13.5148" height="13.5148" rx="1.68935" fill="#207FF1"/>
        <rect x="481.464" y="21.7517" width="13.5148" height="13.5148" rx="1.68935" fill="#207FF1"/>
        <rect x="506.805" y="21.7517" width="13.5148" height="13.5148" rx="1.68935" fill="white"/>
        <rect x="532.145" y="21.7517" width="13.5148" height="13.5148" rx="1.68935" fill="#207FF1"/>
        <rect x="557.485" y="21.7517" width="13.5148" height="13.5148" rx="1.68935" fill="#207FF1"/>
        <rect y="47.0918" width="13.5148" height="13.5148" rx="1.68935" fill="#207FF1"/>
        <rect x="25.3403" y="47.0918" width="13.5148" height="13.5148" rx="1.68935" fill="white"/>
        <rect x="50.6807" y="47.0918" width="13.5148" height="13.5148" rx="1.68935" fill="#207FF1"/>
        <rect x="76.0205" y="47.0918" width="13.5148" height="13.5148" rx="1.68935" fill="#207FF1"/>
        <rect x="101.361" y="47.0918" width="13.5148" height="13.5148" rx="1.68935" fill="#207FF1"/>
        <rect x="126.701" y="47.0918" width="13.5148" height="13.5148" rx="1.68935" fill="#207FF1"/>
        <rect x="152.042" y="47.0918" width="13.5148" height="13.5148" rx="1.68935" fill="#207FF1"/>
        <rect x="177.382" y="47.0918" width="13.5148" height="13.5148" rx="1.68935" fill="white"/>
        <rect x="202.722" y="47.0918" width="13.5148" height="13.5148" rx="1.68935" fill="#207FF1"/>
        <rect x="228.062" y="47.0918" width="13.5148" height="13.5148" rx="1.68935" fill="#207FF1"/>
        <rect x="253.402" y="47.0918" width="13.5148" height="13.5148" rx="1.68935" fill="#207FF1"/>
        <rect x="278.743" y="47.0918" width="13.5148" height="13.5148" rx="1.68935" fill="#207FF1"/>
        <rect x="304.083" y="47.0918" width="13.5148" height="13.5148" rx="1.68935" fill="#207FF1"/>
        <rect x="329.423" y="47.0918" width="13.5148" height="13.5148" rx="1.68935" fill="#207FF1"/>
        <rect x="354.763" y="47.0918" width="13.5148" height="13.5148" rx="1.68935" fill="#207FF1"/>
        <rect x="380.104" y="47.0918" width="13.5148" height="13.5148" rx="1.68935" fill="#207FF1"/>
        <rect x="405.444" y="47.0918" width="13.5148" height="13.5148" rx="1.68935" fill="#207FF1"/>
        <rect x="430.784" y="47.0918" width="13.5148" height="13.5148" rx="1.68935" fill="white"/>
        <rect x="456.125" y="47.0918" width="13.5148" height="13.5148" rx="1.68935" fill="#207FF1"/>
        <rect x="481.464" y="47.0918" width="13.5148" height="13.5148" rx="1.68935" fill="#207FF1"/>
        <rect x="506.805" y="47.0918" width="13.5148" height="13.5148" rx="1.68935" fill="#207FF1"/>
        <rect x="532.145" y="47.0918" width="13.5148" height="13.5148" rx="1.68935" fill="#207FF1"/>
        <rect x="557.485" y="47.0918" width="13.5148" height="13.5148" rx="1.68935" fill="white"/>
        <rect y="72.4321" width="13.5148" height="13.5148" rx="1.68935" fill="#207FF1"/>
        <rect x="25.3403" y="72.4321" width="13.5148" height="13.5148" rx="1.68935" fill="#207FF1"/>
        <rect x="50.6807" y="72.4321" width="13.5148" height="13.5148" rx="1.68935" fill="#207FF1"/>
        <rect x="76.0205" y="72.4321" width="13.5148" height="13.5148" rx="1.68935" fill="white"/>
        <rect x="101.361" y="72.4321" width="13.5148" height="13.5148" rx="1.68935" fill="#207FF1"/>
        <rect x="126.701" y="72.4321" width="13.5148" height="13.5148" rx="1.68935" fill="#207FF1"/>
        <rect x="152.042" y="72.4321" width="13.5148" height="13.5148" rx="1.68935" fill="#207FF1"/>
        <rect x="177.382" y="72.4321" width="13.5148" height="13.5148" rx="1.68935" fill="#207FF1"/>
        <rect x="202.722" y="72.4321" width="13.5148" height="13.5148" rx="1.68935" fill="#207FF1"/>
        <rect x="228.062" y="72.4321" width="13.5148" height="13.5148" rx="1.68935" fill="#207FF1"/>
        <rect x="253.402" y="72.4321" width="13.5148" height="13.5148" rx="1.68935" fill="white"/>
        <rect x="278.743" y="72.4321" width="13.5148" height="13.5148" rx="1.68935" fill="#207FF1"/>
        <rect x="304.083" y="72.4321" width="13.5148" height="13.5148" rx="1.68935" fill="#207FF1"/>
        <rect x="329.423" y="72.4321" width="13.5148" height="13.5148" rx="1.68935" fill="#207FF1"/>
        <rect x="354.763" y="72.4321" width="13.5148" height="13.5148" rx="1.68935" fill="#207FF1"/>
        <rect x="380.104" y="72.4321" width="13.5148" height="13.5148" rx="1.68935" fill="#207FF1"/>
        <rect x="405.444" y="72.4321" width="13.5148" height="13.5148" rx="1.68935" fill="#207FF1"/>
        <rect x="430.784" y="72.4321" width="13.5148" height="13.5148" rx="1.68935" fill="#207FF1"/>
        <rect x="456.125" y="72.4321" width="13.5148" height="13.5148" rx="1.68935" fill="#207FF1"/>
        <rect x="481.464" y="72.4321" width="13.5148" height="13.5148" rx="1.68935" fill="#207FF1"/>
        <rect x="506.805" y="72.4321" width="13.5148" height="13.5148" rx="1.68935" fill="#207FF1"/>
        <rect x="532.145" y="72.4321" width="13.5148" height="13.5148" rx="1.68935" fill="white"/>
        <rect x="557.485" y="72.4321" width="13.5148" height="13.5148" rx="1.68935" fill="#207FF1"/>
        <rect y="97.7725" width="13.5148" height="13.5148" rx="1.68935" fill="white"/>
        <rect x="25.3403" y="97.7725" width="13.5148" height="13.5148" rx="1.68935" fill="#207FF1"/>
        <rect x="50.6807" y="97.7725" width="13.5148" height="13.5148" rx="1.68935" fill="#207FF1"/>
        <rect x="76.0205" y="97.7725" width="13.5148" height="13.5148" rx="1.68935" fill="#207FF1"/>
        <rect x="101.361" y="97.7725" width="13.5148" height="13.5148" rx="1.68935" fill="#207FF1"/>
        <rect x="126.701" y="97.7725" width="13.5148" height="13.5148" rx="1.68935" fill="#207FF1"/>
        <rect x="152.042" y="97.7725" width="13.5148" height="13.5148" rx="1.68935" fill="#207FF1"/>
        <rect x="177.382" y="97.7725" width="13.5148" height="13.5148" rx="1.68935" fill="#207FF1"/>
        <rect x="202.722" y="97.7725" width="13.5148" height="13.5148" rx="1.68935" fill="#207FF1"/>
        <rect x="228.062" y="97.7725" width="13.5148" height="13.5148" rx="1.68935" fill="#207FF1"/>
        <rect x="253.402" y="97.7725" width="13.5148" height="13.5148" rx="1.68935" fill="#207FF1"/>
        <rect x="278.743" y="97.7725" width="13.5148" height="13.5148" rx="1.68935" fill="#207FF1"/>
        <rect x="304.083" y="97.7725" width="13.5148" height="13.5148" rx="1.68935" fill="#207FF1"/>
        <rect x="329.423" y="97.7725" width="13.5148" height="13.5148" rx="1.68935" fill="#207FF1"/>
        <rect x="354.763" y="97.7725" width="13.5148" height="13.5148" rx="1.68935" fill="white"/>
        <rect x="380.104" y="97.7725" width="13.5148" height="13.5148" rx="1.68935" fill="#207FF1"/>
        <rect x="405.444" y="97.7725" width="13.5148" height="13.5148" rx="1.68935" fill="#207FF1"/>
        <rect x="430.784" y="97.7725" width="13.5148" height="13.5148" rx="1.68935" fill="#207FF1"/>
        <rect x="456.125" y="97.7725" width="13.5148" height="13.5148" rx="1.68935" fill="#207FF1"/>
        <rect x="481.464" y="97.7725" width="13.5148" height="13.5148" rx="1.68935" fill="white"/>
        <rect x="506.805" y="97.7725" width="13.5148" height="13.5148" rx="1.68935" fill="#207FF1"/>
        <rect x="532.145" y="97.7725" width="13.5148" height="13.5148" rx="1.68935" fill="#207FF1"/>
        <rect x="557.485" y="97.7725" width="13.5148" height="13.5148" rx="1.68935" fill="#207FF1"/>
        <rect y="123.113" width="13.5148" height="13.5148" rx="1.68935" fill="#207FF1"/>
        <rect x="25.3403" y="123.113" width="13.5148" height="13.5148" rx="1.68935" fill="#207FF1"/>
        <rect x="50.6807" y="123.113" width="13.5148" height="13.5148" rx="1.68935" fill="#207FF1"/>
        <rect x="76.0205" y="123.113" width="13.5148" height="13.5148" rx="1.68935" fill="#207FF1"/>
        <rect x="101.361" y="123.113" width="13.5148" height="13.5148" rx="1.68935" fill="white"/>
        <rect x="126.701" y="123.113" width="13.5148" height="13.5148" rx="1.68935" fill="#207FF1"/>
        <rect x="152.042" y="123.113" width="13.5148" height="13.5148" rx="1.68935" fill="#207FF1"/>
        <rect x="177.382" y="123.113" width="13.5148" height="13.5148" rx="1.68935" fill="white"/>
        <rect x="202.722" y="123.113" width="13.5148" height="13.5148" rx="1.68935" fill="#207FF1"/>
        <rect x="228.062" y="123.113" width="13.5148" height="13.5148" rx="1.68935" fill="#207FF1"/>
        <rect x="253.402" y="123.113" width="13.5148" height="13.5148" rx="1.68935" fill="#207FF1"/>
        <rect x="278.743" y="123.113" width="13.5148" height="13.5148" rx="1.68935" fill="#207FF1"/>
        <rect x="304.083" y="123.113" width="13.5148" height="13.5148" rx="1.68935" fill="white"/>
        <rect x="329.423" y="123.113" width="13.5148" height="13.5148" rx="1.68935" fill="#207FF1"/>
        <rect x="354.763" y="123.113" width="13.5148" height="13.5148" rx="1.68935" fill="#207FF1"/>
        <rect x="380.104" y="123.113" width="13.5148" height="13.5148" rx="1.68935" fill="#207FF1"/>
        <rect x="405.444" y="123.113" width="13.5148" height="13.5148" rx="1.68935" fill="#207FF1"/>
        <rect x="430.784" y="123.113" width="13.5148" height="13.5148" rx="1.68935" fill="#207FF1"/>
        <rect x="456.125" y="123.113" width="13.5148" height="13.5148" rx="1.68935" fill="#207FF1"/>
        <rect x="481.464" y="123.113" width="13.5148" height="13.5148" rx="1.68935" fill="#207FF1"/>
        <rect x="506.805" y="123.113" width="13.5148" height="13.5148" rx="1.68935" fill="#207FF1"/>
        <rect x="532.145" y="123.113" width="13.5148" height="13.5148" rx="1.68935" fill="#207FF1"/>
        <rect x="557.485" y="123.113" width="13.5148" height="13.5148" rx="1.68935" fill="white"/>
        <rect y="148.453" width="13.5148" height="13.5148" rx="1.68935" fill="#207FF1"/>
        <rect x="25.3403" y="148.453" width="13.5148" height="13.5148" rx="1.68935" fill="#207FF1"/>
        <rect x="50.6802" y="148.453" width="13.5148" height="13.5148" rx="1.68935" fill="#207FF1"/>
        <rect x="76.0205" y="148.453" width="13.5148" height="13.5148" rx="1.68935" fill="#207FF1"/>
        <rect x="101.361" y="148.453" width="13.5148" height="13.5148" rx="1.68935" fill="#207FF1"/>
        <rect x="126.701" y="148.453" width="13.5148" height="13.5148" rx="1.68935" fill="#207FF1"/>
        <rect x="152.042" y="148.453" width="13.5148" height="13.5148" rx="1.68935" fill="#207FF1"/>
        <rect x="177.382" y="148.453" width="13.5148" height="13.5148" rx="1.68935" fill="#207FF1"/>
        <rect x="202.722" y="148.453" width="13.5148" height="13.5148" rx="1.68935" fill="#207FF1"/>
        <rect x="228.062" y="148.453" width="13.5148" height="13.5148" rx="1.68935" fill="#207FF1"/>
        <rect x="253.402" y="148.453" width="13.5148" height="13.5148" rx="1.68935" fill="white"/>
        <rect x="278.742" y="148.453" width="13.5148" height="13.5148" rx="1.68935" fill="#207FF1"/>
        <rect x="304.083" y="148.453" width="13.5148" height="13.5148" rx="1.68935" fill="#207FF1"/>
        <rect x="329.423" y="148.453" width="13.5148" height="13.5148" rx="1.68935" fill="#207FF1"/>
        <rect x="354.763" y="148.453" width="13.5148" height="13.5148" rx="1.68935" fill="#207FF1"/>
        <rect x="380.104" y="148.453" width="13.5148" height="13.5148" rx="1.68935" fill="white"/>
        <rect x="405.444" y="148.453" width="13.5148" height="13.5148" rx="1.68935" fill="#207FF1"/>
        <rect x="430.784" y="148.453" width="13.5148" height="13.5148" rx="1.68935" fill="#207FF1"/>
        <rect x="456.125" y="148.453" width="13.5148" height="13.5148" rx="1.68935" fill="#207FF1"/>
        <rect x="481.465" y="148.453" width="13.5148" height="13.5148" rx="1.68935" fill="#207FF1"/>
        <rect x="506.805" y="148.453" width="13.5148" height="13.5148" rx="1.68935" fill="white"/>
        <rect x="532.145" y="148.453" width="13.5148" height="13.5148" rx="1.68935" fill="#207FF1"/>
        <rect x="557.485" y="148.453" width="13.5148" height="13.5148" rx="1.68935" fill="#207FF1"/>
        <rect y="173.793" width="13.5148" height="13.5148" rx="1.68935" fill="#207FF1"/>
        <rect x="25.3403" y="173.793" width="13.5148" height="13.5148" rx="1.68935" fill="#207FF1"/>
        <rect x="50.6807" y="173.793" width="13.5148" height="13.5148" rx="1.68935" fill="#207FF1"/>
        <rect x="76.0205" y="173.793" width="13.5148" height="13.5148" rx="1.68935" fill="#207FF1"/>
        <rect x="101.361" y="173.793" width="13.5148" height="13.5148" rx="1.68935" fill="#207FF1"/>
        <rect x="126.701" y="173.793" width="13.5148" height="13.5148" rx="1.68935" fill="#207FF1"/>
        <rect x="152.042" y="173.793" width="13.5148" height="13.5148" rx="1.68935" fill="white"/>
        <rect x="177.382" y="173.793" width="13.5148" height="13.5148" rx="1.68935" fill="#207FF1"/>
        <rect x="202.722" y="173.793" width="13.5148" height="13.5148" rx="1.68935" fill="#207FF1"/>
        <rect x="228.062" y="173.793" width="13.5148" height="13.5148" rx="1.68935" fill="#207FF1"/>
        <rect x="253.402" y="173.793" width="13.5148" height="13.5148" rx="1.68935" fill="#207FF1"/>
        <rect x="278.742" y="173.793" width="13.5148" height="13.5148" rx="1.68935" fill="#207FF1"/>
        <rect x="304.083" y="173.793" width="13.5148" height="13.5148" rx="1.68935" fill="#207FF1"/>
        <rect x="329.423" y="173.793" width="13.5148" height="13.5148" rx="1.68935" fill="white"/>
        <rect x="354.763" y="173.793" width="13.5148" height="13.5148" rx="1.68935" fill="#207FF1"/>
        <rect x="380.104" y="173.793" width="13.5148" height="13.5148" rx="1.68935" fill="#207FF1"/>
        <rect x="405.444" y="173.793" width="13.5148" height="13.5148" rx="1.68935" fill="#207FF1"/>
        <rect x="430.784" y="173.793" width="13.5148" height="13.5148" rx="1.68935" fill="#207FF1"/>
        <rect x="456.125" y="173.793" width="13.5148" height="13.5148" rx="1.68935" fill="white"/>
        <rect x="481.465" y="173.793" width="13.5148" height="13.5148" rx="1.68935" fill="#207FF1"/>
        <rect x="506.805" y="173.793" width="13.5148" height="13.5148" rx="1.68935" fill="#207FF1"/>
        <rect x="532.145" y="173.793" width="13.5148" height="13.5148" rx="1.68935" fill="#207FF1"/>
        <rect x="557.485" y="173.793" width="13.5148" height="13.5148" rx="1.68935" fill="#207FF1"/>
        <rect y="199.133" width="13.5148" height="13.5148" rx="1.68935" fill="#207FF1"/>
        <rect x="25.3403" y="199.133" width="13.5148" height="13.5148" rx="1.68935" fill="#207FF1"/>
        <rect x="50.6807" y="199.133" width="13.5148" height="13.5148" rx="1.68935" fill="#207FF1"/>
        <rect x="76.0205" y="199.133" width="13.5148" height="13.5148" rx="1.68935" fill="#207FF1"/>
        <rect x="101.361" y="199.133" width="13.5148" height="13.5148" rx="1.68935" fill="white"/>
        <rect x="126.701" y="199.133" width="13.5148" height="13.5148" rx="1.68935" fill="#207FF1"/>
        <rect x="152.042" y="199.133" width="13.5148" height="13.5148" rx="1.68935" fill="#207FF1"/>
        <rect x="177.382" y="199.133" width="13.5148" height="13.5148" rx="1.68935" fill="#207FF1"/>
        <rect x="202.722" y="199.133" width="13.5148" height="13.5148" rx="1.68935" fill="#207FF1"/>
        <rect x="228.062" y="199.133" width="13.5148" height="13.5148" rx="1.68935" fill="#207FF1"/>
        <rect x="253.402" y="199.133" width="13.5148" height="13.5148" rx="1.68935" fill="#207FF1"/>
        <rect x="278.742" y="199.133" width="13.5148" height="13.5148" rx="1.68935" fill="#207FF1"/>
        <rect x="304.083" y="199.133" width="13.5148" height="13.5148" rx="1.68935" fill="#207FF1"/>
        <rect x="329.423" y="199.133" width="13.5148" height="13.5148" rx="1.68935" fill="#207FF1"/>
        <rect x="354.763" y="199.133" width="13.5148" height="13.5148" rx="1.68935" fill="#207FF1"/>
        <rect x="380.104" y="199.133" width="13.5148" height="13.5148" rx="1.68935" fill="#207FF1"/>
        <rect x="405.444" y="199.133" width="13.5148" height="13.5148" rx="1.68935" fill="white"/>
        <rect x="430.784" y="199.133" width="13.5148" height="13.5148" rx="1.68935" fill="#207FF1"/>
        <rect x="456.125" y="199.133" width="13.5148" height="13.5148" rx="1.68935" fill="#207FF1"/>
        <rect x="481.465" y="199.133" width="13.5148" height="13.5148" rx="1.68935" fill="#207FF1"/>
        <rect x="506.805" y="199.133" width="13.5148" height="13.5148" rx="1.68935" fill="#207FF1"/>
        <rect x="532.145" y="199.133" width="13.5148" height="13.5148" rx="1.68935" fill="#207FF1"/>
        <rect x="557.485" y="199.133" width="13.5148" height="13.5148" rx="1.68935" fill="white"/>
    </g>
</svg>
